  0
SECTION
  2
HEADER
  9
$ACADVER
  1
AC1009
  9
$INSUNITS
 70
     1
 9
$MEASUREMENT
 70
    0
  0
ENDSEC
  0
SECTION
  2
TABLES
  0
TABLE
  2
LAYER
 70
     8
  0
LAYER
  2
0
 62
     7
 70
0
  6
CONTINUOUS
  0
LAYER
  2
1
 62
     1
 70
0
  6
CONTINUOUS
  0
LAYER
  2
2
 62
     2
 70
0
  6
CONTINUOUS
  0
LAYER
  2
3
 62
     3
 70
0
  6
CONTINUOUS
  0
LAYER
  2
4
 62
     4
 70
0
  6
CONTINUOUS
  0
LAYER
  2
5
 62
     5
 70
0
  6
CONTINUOUS
  0
LAYER
  2
6
 62
     6
 70
0
  6
CONTINUOUS
  0
LAYER
  2
7
 62
     7
 70
0
  6
CONTINUOUS
  0
ENDTAB
  0
TABLE
  2
STYLE
 70
     1
  0
STYLE
 70
     0
  2
STANDARD
  3
TXT
 40
0.00
 41
1.00
 42
1.00
 50
0.00
 71
     0
  0
ENDTAB
  0
ENDSEC
  0
SECTION
  2
BLOCKS
  0
BLOCK
  8
0
  2
EPAD
 70
0
 10
0.0
 20
0.0
  0
POLYLINE
  8
0
 66
1
 70
1
 40
0.5
 41
0.5
  0
VERTEX
  8
0
 10
-0.25
 20
0.0
 42
1.0
  0
VERTEX
  8
0
 10
0.25
 20
0.0
 42
1.0
  0
SEQEND
  8
0
  0
ENDBLK
  8
0
  0
BLOCK
  8
0
  2
RPAD
 70
0
 10
0.0
 20
0.0
  0
TRACE
  8
0
 10
-0.5
 20
-0.5
 11
-0.5
 21
0.5
 12
0.5
 22
-0.5
 13
0.5
 23
0.5
  0
ENDBLK
  8
0
  0
ENDSEC
0
SECTION
2
ENTITIES
0
POLYLINE
8
1
66
1
40
0.016000
41
0.016000
0
VERTEX
8
1
10
-3.800000
20
-2.100000
0
VERTEX
8
1
10
-4.200000
20
-2.100000
0
VERTEX
8
1
10
-4.200000
20
-3.000000
0
VERTEX
8
1
10
-0.100000
20
-3.000000
0
VERTEX
8
1
10
-0.100000
20
-2.800000
0
SEQEND
8
1
0
POLYLINE
8
1
66
1
40
0.016000
41
0.016000
0
VERTEX
8
1
10
-3.800000
20
-2.000000
0
VERTEX
8
1
10
-4.100000
20
-2.000000
0
VERTEX
8
1
10
-4.100000
20
-3.100000
0
VERTEX
8
1
10
0.000000
20
-3.100000
0
VERTEX
8
1
10
0.000000
20
-2.700000
0
VERTEX
8
1
10
-0.100000
20
-2.700000
0
SEQEND
8
1
0
POLYLINE
8
1
66
1
40
0.016000
41
0.016000
0
VERTEX
8
1
10
5.500000
20
-2.700000
0
VERTEX
8
1
10
5.600000
20
-2.700000
0
VERTEX
8
1
10
5.600000
20
-3.100000
0
VERTEX
8
1
10
1.300000
20
-3.100000
0
VERTEX
8
1
10
1.300000
20
-2.000000
0
VERTEX
8
1
10
1.600000
20
-2.000000
0
SEQEND
8
1
0
POLYLINE
8
1
66
1
40
0.016000
41
0.016000
0
VERTEX
8
1
10
5.500000
20
-2.800000
0
VERTEX
8
1
10
5.500000
20
-3.000000
0
VERTEX
8
1
10
1.500000
20
-3.000000
0
VERTEX
8
1
10
1.500000
20
-2.100000
0
VERTEX
8
1
10
1.600000
20
-2.100000
0
SEQEND
8
1
0
POLYLINE
8
1
66
1
40
0.016000
41
0.016000
0
VERTEX
8
1
10
-1.100000
20
-2.100000
0
VERTEX
8
1
10
-1.200000
20
-2.100000
0
VERTEX
8
1
10
-1.200000
20
-3.300000
0
VERTEX
8
1
10
2.600000
20
-3.300000
0
VERTEX
8
1
10
2.600000
20
-2.800000
0
SEQEND
8
1
0
POLYLINE
8
1
66
1
40
0.016000
41
0.016000
0
VERTEX
8
1
10
-1.100000
20
-2.000000
0
VERTEX
8
1
10
-1.400000
20
-2.000000
0
VERTEX
8
1
10
-1.400000
20
-3.200000
0
VERTEX
8
1
10
2.700000
20
-3.200000
0
VERTEX
8
1
10
2.700000
20
-2.700000
0
VERTEX
8
1
10
2.600000
20
-2.700000
0
SEQEND
8
1
0
POLYLINE
8
1
66
1
40
0.016000
41
0.016000
0
VERTEX
8
1
10
5.500000
20
-2.000000
0
VERTEX
8
1
10
5.500000
20
-2.000000
0
SEQEND
8
1
0
POLYLINE
8
1
66
1
40
0.016000
41
0.016000
0
VERTEX
8
1
10
6.000000
20
-2.000000
0
VERTEX
8
1
10
6.000000
20
-2.000000
0
SEQEND
8
1
0
POLYLINE
8
1
66
1
40
0.016000
41
0.016000
0
VERTEX
8
1
10
5.500000
20
-2.100000
0
VERTEX
8
1
10
5.500000
20
-2.100000
0
SEQEND
8
1
0
POLYLINE
8
1
66
1
40
0.016000
41
0.016000
0
VERTEX
8
1
10
6.000000
20
-2.100000
0
VERTEX
8
1
10
6.000000
20
-2.100000
0
SEQEND
8
1
0
POLYLINE
8
1
66
1
40
0.016000
41
0.016000
0
VERTEX
8
1
10
5.500000
20
-2.200000
0
VERTEX
8
1
10
5.500000
20
-2.200000
0
SEQEND
8
1
0
POLYLINE
8
1
66
1
40
0.016000
41
0.016000
0
VERTEX
8
1
10
6.000000
20
-2.200000
0
VERTEX
8
1
10
6.000000
20
-2.200000
0
SEQEND
8
1
0
POLYLINE
8
1
66
1
40
0.016000
41
0.016000
0
VERTEX
8
1
10
5.500000
20
-2.300000
0
VERTEX
8
1
10
5.500000
20
-2.300000
0
SEQEND
8
1
0
POLYLINE
8
1
66
1
40
0.016000
41
0.016000
0
VERTEX
8
1
10
6.000000
20
-2.300000
0
VERTEX
8
1
10
6.000000
20
-2.300000
0
SEQEND
8
1
0
POLYLINE
8
1
66
1
40
0.016000
41
0.016000
0
VERTEX
8
1
10
5.500000
20
-2.400000
0
VERTEX
8
1
10
5.500000
20
-2.400000
0
SEQEND
8
1
0
POLYLINE
8
1
66
1
40
0.016000
41
0.016000
0
VERTEX
8
1
10
6.000000
20
-2.400000
0
VERTEX
8
1
10
6.000000
20
-2.400000
0
SEQEND
8
1
0
POLYLINE
8
1
66
1
40
0.016000
41
0.016000
0
VERTEX
8
1
10
5.500000
20
-2.500000
0
VERTEX
8
1
10
5.500000
20
-2.500000
0
SEQEND
8
1
0
POLYLINE
8
1
66
1
40
0.016000
41
0.016000
0
VERTEX
8
1
10
6.000000
20
-2.500000
0
VERTEX
8
1
10
6.000000
20
-2.500000
0
SEQEND
8
1
0
POLYLINE
8
1
66
1
40
0.016000
41
0.016000
0
VERTEX
8
1
10
5.500000
20
-2.600000
0
VERTEX
8
1
10
5.500000
20
-2.600000
0
SEQEND
8
1
0
POLYLINE
8
1
66
1
40
0.016000
41
0.016000
0
VERTEX
8
1
10
6.000000
20
-2.600000
0
VERTEX
8
1
10
6.000000
20
-2.600000
0
SEQEND
8
1
0
POLYLINE
8
1
66
1
40
0.016000
41
0.016000
0
VERTEX
8
1
10
2.600000
20
-2.000000
0
VERTEX
8
1
10
2.600000
20
-2.000000
0
SEQEND
8
1
0
POLYLINE
8
1
66
1
40
0.016000
41
0.016000
0
VERTEX
8
1
10
3.100000
20
-2.000000
0
VERTEX
8
1
10
3.100000
20
-2.000000
0
SEQEND
8
1
0
POLYLINE
8
1
66
1
40
0.016000
41
0.016000
0
VERTEX
8
1
10
2.600000
20
-2.100000
0
VERTEX
8
1
10
2.600000
20
-2.100000
0
SEQEND
8
1
0
POLYLINE
8
1
66
1
40
0.016000
41
0.016000
0
VERTEX
8
1
10
3.100000
20
-2.100000
0
VERTEX
8
1
10
3.100000
20
-2.100000
0
SEQEND
8
1
0
POLYLINE
8
1
66
1
40
0.016000
41
0.016000
0
VERTEX
8
1
10
2.600000
20
-2.200000
0
VERTEX
8
1
10
2.600000
20
-2.200000
0
SEQEND
8
1
0
POLYLINE
8
1
66
1
40
0.016000
41
0.016000
0
VERTEX
8
1
10
3.100000
20
-2.200000
0
VERTEX
8
1
10
3.100000
20
-2.200000
0
SEQEND
8
1
0
POLYLINE
8
1
66
1
40
0.016000
41
0.016000
0
VERTEX
8
1
10
2.600000
20
-2.300000
0
VERTEX
8
1
10
2.600000
20
-2.300000
0
SEQEND
8
1
0
POLYLINE
8
1
66
1
40
0.016000
41
0.016000
0
VERTEX
8
1
10
3.100000
20
-2.300000
0
VERTEX
8
1
10
3.100000
20
-2.300000
0
SEQEND
8
1
0
POLYLINE
8
1
66
1
40
0.016000
41
0.016000
0
VERTEX
8
1
10
2.600000
20
-2.400000
0
VERTEX
8
1
10
2.600000
20
-2.400000
0
SEQEND
8
1
0
POLYLINE
8
1
66
1
40
0.016000
41
0.016000
0
VERTEX
8
1
10
3.100000
20
-2.400000
0
VERTEX
8
1
10
3.100000
20
-2.400000
0
SEQEND
8
1
0
POLYLINE
8
1
66
1
40
0.016000
41
0.016000
0
VERTEX
8
1
10
2.600000
20
-2.500000
0
VERTEX
8
1
10
2.600000
20
-2.500000
0
SEQEND
8
1
0
POLYLINE
8
1
66
1
40
0.016000
41
0.016000
0
VERTEX
8
1
10
3.100000
20
-2.500000
0
VERTEX
8
1
10
3.100000
20
-2.500000
0
SEQEND
8
1
0
POLYLINE
8
1
66
1
40
0.016000
41
0.016000
0
VERTEX
8
1
10
2.600000
20
-2.600000
0
VERTEX
8
1
10
2.600000
20
-2.600000
0
SEQEND
8
1
0
POLYLINE
8
1
66
1
40
0.016000
41
0.016000
0
VERTEX
8
1
10
3.100000
20
-2.600000
0
VERTEX
8
1
10
3.100000
20
-2.600000
0
SEQEND
8
1
0
POLYLINE
8
1
66
1
40
0.016000
41
0.016000
0
VERTEX
8
1
10
-0.100000
20
-2.000000
0
VERTEX
8
1
10
-0.100000
20
-2.000000
0
SEQEND
8
1
0
POLYLINE
8
1
66
1
40
0.016000
41
0.016000
0
VERTEX
8
1
10
0.400000
20
-2.000000
0
VERTEX
8
1
10
0.400000
20
-2.000000
0
SEQEND
8
1
0
POLYLINE
8
1
66
1
40
0.016000
41
0.016000
0
VERTEX
8
1
10
-0.100000
20
-2.100000
0
VERTEX
8
1
10
-0.100000
20
-2.100000
0
SEQEND
8
1
0
POLYLINE
8
1
66
1
40
0.016000
41
0.016000
0
VERTEX
8
1
10
0.400000
20
-2.100000
0
VERTEX
8
1
10
0.400000
20
-2.100000
0
SEQEND
8
1
0
POLYLINE
8
1
66
1
40
0.016000
41
0.016000
0
VERTEX
8
1
10
-0.100000
20
-2.200000
0
VERTEX
8
1
10
-0.100000
20
-2.200000
0
SEQEND
8
1
0
POLYLINE
8
1
66
1
40
0.016000
41
0.016000
0
VERTEX
8
1
10
0.400000
20
-2.200000
0
VERTEX
8
1
10
0.400000
20
-2.200000
0
SEQEND
8
1
0
POLYLINE
8
1
66
1
40
0.016000
41
0.016000
0
VERTEX
8
1
10
-0.100000
20
-2.300000
0
VERTEX
8
1
10
-0.100000
20
-2.300000
0
SEQEND
8
1
0
POLYLINE
8
1
66
1
40
0.016000
41
0.016000
0
VERTEX
8
1
10
0.400000
20
-2.300000
0
VERTEX
8
1
10
0.400000
20
-2.300000
0
SEQEND
8
1
0
POLYLINE
8
1
66
1
40
0.016000
41
0.016000
0
VERTEX
8
1
10
-0.100000
20
-2.400000
0
VERTEX
8
1
10
-0.100000
20
-2.400000
0
SEQEND
8
1
0
POLYLINE
8
1
66
1
40
0.016000
41
0.016000
0
VERTEX
8
1
10
0.400000
20
-2.400000
0
VERTEX
8
1
10
0.400000
20
-2.400000
0
SEQEND
8
1
0
POLYLINE
8
1
66
1
40
0.016000
41
0.016000
0
VERTEX
8
1
10
-0.100000
20
-2.500000
0
VERTEX
8
1
10
-0.100000
20
-2.500000
0
SEQEND
8
1
0
POLYLINE
8
1
66
1
40
0.016000
41
0.016000
0
VERTEX
8
1
10
0.400000
20
-2.500000
0
VERTEX
8
1
10
0.400000
20
-2.500000
0
SEQEND
8
1
0
POLYLINE
8
1
66
1
40
0.016000
41
0.016000
0
VERTEX
8
1
10
-0.100000
20
-2.600000
0
VERTEX
8
1
10
-0.100000
20
-2.600000
0
SEQEND
8
1
0
POLYLINE
8
1
66
1
40
0.016000
41
0.016000
0
VERTEX
8
1
10
0.400000
20
-2.600000
0
VERTEX
8
1
10
0.400000
20
-2.600000
0
SEQEND
8
1
0
POLYLINE
8
1
66
1
40
0.016000
41
0.016000
0
VERTEX
8
1
10
-2.800000
20
-2.000000
0
VERTEX
8
1
10
-2.800000
20
-2.000000
0
SEQEND
8
1
0
POLYLINE
8
1
66
1
40
0.016000
41
0.016000
0
VERTEX
8
1
10
-2.300000
20
-2.000000
0
VERTEX
8
1
10
-2.300000
20
-2.000000
0
SEQEND
8
1
0
POLYLINE
8
1
66
1
40
0.016000
41
0.016000
0
VERTEX
8
1
10
-2.800000
20
-2.100000
0
VERTEX
8
1
10
-2.800000
20
-2.100000
0
SEQEND
8
1
0
POLYLINE
8
1
66
1
40
0.016000
41
0.016000
0
VERTEX
8
1
10
-2.300000
20
-2.100000
0
VERTEX
8
1
10
-2.300000
20
-2.100000
0
SEQEND
8
1
0
POLYLINE
8
1
66
1
40
0.016000
41
0.016000
0
VERTEX
8
1
10
-2.800000
20
-2.200000
0
VERTEX
8
1
10
-2.800000
20
-2.200000
0
SEQEND
8
1
0
POLYLINE
8
1
66
1
40
0.016000
41
0.016000
0
VERTEX
8
1
10
-2.300000
20
-2.200000
0
VERTEX
8
1
10
-2.300000
20
-2.200000
0
SEQEND
8
1
0
POLYLINE
8
1
66
1
40
0.016000
41
0.016000
0
VERTEX
8
1
10
-2.800000
20
-2.300000
0
VERTEX
8
1
10
-2.800000
20
-2.300000
0
SEQEND
8
1
0
POLYLINE
8
1
66
1
40
0.016000
41
0.016000
0
VERTEX
8
1
10
-2.300000
20
-2.300000
0
VERTEX
8
1
10
-2.300000
20
-2.300000
0
SEQEND
8
1
0
POLYLINE
8
1
66
1
40
0.016000
41
0.016000
0
VERTEX
8
1
10
-2.800000
20
-2.400000
0
VERTEX
8
1
10
-2.800000
20
-2.400000
0
SEQEND
8
1
0
POLYLINE
8
1
66
1
40
0.016000
41
0.016000
0
VERTEX
8
1
10
-2.300000
20
-2.400000
0
VERTEX
8
1
10
-2.300000
20
-2.400000
0
SEQEND
8
1
0
POLYLINE
8
1
66
1
40
0.016000
41
0.016000
0
VERTEX
8
1
10
-2.800000
20
-2.500000
0
VERTEX
8
1
10
-2.800000
20
-2.500000
0
SEQEND
8
1
0
POLYLINE
8
1
66
1
40
0.016000
41
0.016000
0
VERTEX
8
1
10
-2.300000
20
-2.500000
0
VERTEX
8
1
10
-2.300000
20
-2.500000
0
SEQEND
8
1
0
POLYLINE
8
1
66
1
40
0.016000
41
0.016000
0
VERTEX
8
1
10
-2.800000
20
-2.600000
0
VERTEX
8
1
10
-2.800000
20
-2.600000
0
SEQEND
8
1
0
POLYLINE
8
1
66
1
40
0.016000
41
0.016000
0
VERTEX
8
1
10
-2.300000
20
-2.600000
0
VERTEX
8
1
10
-2.300000
20
-2.600000
0
SEQEND
8
1
0
POLYLINE
8
1
66
1
40
0.016000
41
0.016000
0
VERTEX
8
1
10
1.800000
20
-4.400000
0
VERTEX
8
1
10
1.800000
20
-4.300000
0
SEQEND
8
1
0
POLYLINE
8
1
66
1
40
0.016000
41
0.016000
0
VERTEX
8
1
10
-2.800000
20
2.000000
0
VERTEX
8
1
10
-2.800000
20
2.000000
0
SEQEND
8
1
0
POLYLINE
8
1
66
1
40
0.016000
41
0.016000
0
VERTEX
8
1
10
-2.800000
20
1.600000
0
VERTEX
8
1
10
-3.300000
20
1.600000
0
SEQEND
8
1
0
POLYLINE
8
1
66
1
40
0.016000
41
0.016000
0
VERTEX
8
1
10
-2.600000
20
2.900000
0
VERTEX
8
1
10
-2.600000
20
2.900000
0
SEQEND
8
1
0
POLYLINE
8
1
66
1
40
0.016000
41
0.016000
0
VERTEX
8
1
10
-2.800000
20
3.400000
0
VERTEX
8
1
10
-2.600000
20
3.400000
0
VERTEX
8
1
10
-2.600000
20
2.900000
0
SEQEND
8
1
0
POLYLINE
8
1
66
1
40
0.016000
41
0.016000
0
VERTEX
8
1
10
-4.300000
20
3.100000
0
VERTEX
8
1
10
-4.300000
20
2.700000
0
SEQEND
8
1
0
POLYLINE
8
1
66
1
40
0.016000
41
0.016000
0
VERTEX
8
1
10
-3.300000
20
1.600000
0
VERTEX
8
1
10
-4.300000
20
1.600000
0
VERTEX
8
1
10
-4.300000
20
2.700000
0
SEQEND
8
1
0
POLYLINE
8
1
66
1
40
0.016000
41
0.016000
0
VERTEX
8
1
10
-4.200000
20
2.700000
0
VERTEX
8
1
10
-4.300000
20
2.700000
0
SEQEND
8
1
0
POLYLINE
8
1
66
1
40
0.016000
41
0.016000
0
VERTEX
8
1
10
-3.300000
20
4.200000
0
VERTEX
8
1
10
-3.300000
20
3.800000
0
SEQEND
8
1
0
POLYLINE
8
1
66
1
40
0.016000
41
0.016000
0
VERTEX
8
1
10
-2.800000
20
2.900000
0
VERTEX
8
1
10
-2.800000
20
2.900000
0
SEQEND
8
1
0
POLYLINE
8
1
66
1
40
0.016000
41
0.016000
0
VERTEX
8
1
10
-2.600000
20
2.900000
0
VERTEX
8
1
10
-2.800000
20
2.900000
0
SEQEND
8
1
0
POLYLINE
8
1
66
1
40
0.016000
41
0.016000
0
VERTEX
8
1
10
-2.800000
20
3.100000
0
VERTEX
8
1
10
-2.800000
20
3.100000
0
SEQEND
8
1
0
POLYLINE
8
1
66
1
40
0.016000
41
0.016000
0
VERTEX
8
1
10
-3.300000
20
2.000000
0
VERTEX
8
1
10
-3.300000
20
2.000000
0
SEQEND
8
1
0
POLYLINE
8
1
66
1
40
0.016000
41
0.016000
0
VERTEX
8
1
10
-3.300000
20
1.600000
0
VERTEX
8
1
10
-3.300000
20
2.000000
0
SEQEND
8
1
0
POLYLINE
8
1
66
1
40
0.016000
41
0.016000
0
VERTEX
8
1
10
-3.300000
20
3.400000
0
VERTEX
8
1
10
-3.300000
20
3.400000
0
SEQEND
8
1
0
POLYLINE
8
1
66
1
40
0.016000
41
0.016000
0
VERTEX
8
1
10
-3.300000
20
3.800000
0
VERTEX
8
1
10
-3.300000
20
3.400000
0
VERTEX
8
1
10
-3.300000
20
3.400000
0
SEQEND
8
1
0
POLYLINE
8
1
66
1
40
0.016000
41
0.016000
0
VERTEX
8
1
10
-3.800000
20
2.300000
0
VERTEX
8
1
10
-3.800000
20
2.300000
0
SEQEND
8
1
0
POLYLINE
8
1
66
1
40
0.016000
41
0.016000
0
VERTEX
8
1
10
-2.800000
20
2.000000
0
VERTEX
8
1
10
-3.800000
20
2.000000
0
VERTEX
8
1
10
-3.800000
20
2.300000
0
SEQEND
8
1
0
POLYLINE
8
1
66
1
40
0.016000
41
0.016000
0
VERTEX
8
1
10
-2.800000
20
2.000000
0
VERTEX
8
1
10
-2.800000
20
2.300000
0
SEQEND
8
1
0
POLYLINE
8
1
66
1
40
0.016000
41
0.016000
0
VERTEX
8
1
10
-2.600000
20
2.400000
0
VERTEX
8
1
10
-2.600000
20
2.300000
0
VERTEX
8
1
10
-2.800000
20
2.300000
0
VERTEX
8
1
10
-2.800000
20
2.300000
0
SEQEND
8
1
0
POLYLINE
8
1
66
1
40
0.016000
41
0.016000
0
VERTEX
8
1
10
-3.800000
20
2.700000
0
VERTEX
8
1
10
-3.800000
20
2.700000
0
VERTEX
8
1
10
-3.800000
20
2.700000
0
SEQEND
8
1
0
POLYLINE
8
1
66
1
40
0.016000
41
0.016000
0
VERTEX
8
1
10
-1.000000
20
1.500000
0
VERTEX
8
1
10
-1.000000
20
1.500000
0
SEQEND
8
1
0
POLYLINE
8
1
66
1
40
0.016000
41
0.016000
0
VERTEX
8
1
10
-1.000000
20
1.100000
0
VERTEX
8
1
10
-1.500000
20
1.100000
0
SEQEND
8
1
0
POLYLINE
8
1
66
1
40
0.016000
41
0.016000
0
VERTEX
8
1
10
-0.800000
20
2.400000
0
VERTEX
8
1
10
-0.800000
20
2.400000
0
SEQEND
8
1
0
POLYLINE
8
1
66
1
40
0.016000
41
0.016000
0
VERTEX
8
1
10
-1.000000
20
2.900000
0
VERTEX
8
1
10
-0.800000
20
2.900000
0
VERTEX
8
1
10
-0.800000
20
2.400000
0
SEQEND
8
1
0
POLYLINE
8
1
66
1
40
0.016000
41
0.016000
0
VERTEX
8
1
10
-2.500000
20
2.600000
0
VERTEX
8
1
10
-2.500000
20
2.200000
0
SEQEND
8
1
0
POLYLINE
8
1
66
1
40
0.016000
41
0.016000
0
VERTEX
8
1
10
-1.500000
20
1.100000
0
VERTEX
8
1
10
-2.500000
20
1.100000
0
VERTEX
8
1
10
-2.500000
20
2.200000
0
SEQEND
8
1
0
POLYLINE
8
1
66
1
40
0.016000
41
0.016000
0
VERTEX
8
1
10
-2.400000
20
2.200000
0
VERTEX
8
1
10
-2.500000
20
2.200000
0
SEQEND
8
1
0
POLYLINE
8
1
66
1
40
0.016000
41
0.016000
0
VERTEX
8
1
10
-0.800000
20
2.400000
0
VERTEX
8
1
10
-1.000000
20
2.400000
0
VERTEX
8
1
10
-1.000000
20
2.400000
0
SEQEND
8
1
0
POLYLINE
8
1
66
1
40
0.016000
41
0.016000
0
VERTEX
8
1
10
-1.500000
20
1.100000
0
VERTEX
8
1
10
-1.500000
20
1.500000
0
VERTEX
8
1
10
-1.500000
20
1.500000
0
SEQEND
8
1
0
POLYLINE
8
1
66
1
40
0.016000
41
0.016000
0
VERTEX
8
1
10
-1.500000
20
3.300000
0
VERTEX
8
1
10
-1.500000
20
2.900000
0
SEQEND
8
1
0
POLYLINE
8
1
66
1
40
0.016000
41
0.016000
0
VERTEX
8
1
10
-1.000000
20
1.500000
0
VERTEX
8
1
10
-2.000000
20
1.500000
0
VERTEX
8
1
10
-2.000000
20
1.800000
0
VERTEX
8
1
10
-2.000000
20
1.800000
0
SEQEND
8
1
0
POLYLINE
8
1
66
1
40
0.016000
41
0.016000
0
VERTEX
8
1
10
-1.000000
20
1.500000
0
VERTEX
8
1
10
-1.000000
20
1.800000
0
SEQEND
8
1
0
POLYLINE
8
1
66
1
40
0.016000
41
0.016000
0
VERTEX
8
1
10
-0.800000
20
1.900000
0
VERTEX
8
1
10
-0.800000
20
1.800000
0
VERTEX
8
1
10
-1.000000
20
1.800000
0
VERTEX
8
1
10
-1.000000
20
1.800000
0
SEQEND
8
1
0
POLYLINE
8
1
66
1
40
0.016000
41
0.016000
0
VERTEX
8
1
10
-2.000000
20
2.200000
0
VERTEX
8
1
10
-2.000000
20
2.200000
0
VERTEX
8
1
10
-2.000000
20
2.200000
0
SEQEND
8
1
0
POLYLINE
8
1
66
1
40
0.016000
41
0.016000
0
VERTEX
8
1
10
-1.500000
20
2.900000
0
VERTEX
8
1
10
-1.500000
20
2.900000
0
VERTEX
8
1
10
-1.500000
20
2.900000
0
SEQEND
8
1
0
POLYLINE
8
1
66
1
40
0.016000
41
0.016000
0
VERTEX
8
1
10
-1.500000
20
3.300000
0
VERTEX
8
1
10
-1.500000
20
2.900000
0
VERTEX
8
1
10
-1.500000
20
2.900000
0
SEQEND
8
1
0
POLYLINE
8
1
66
1
40
0.016000
41
0.016000
0
VERTEX
8
1
10
-3.300000
20
0.900000
0
VERTEX
8
1
10
-3.300000
20
1.000000
0
SEQEND
8
1
0
POLYLINE
8
1
66
1
40
0.016000
41
0.016000
0
VERTEX
8
1
10
-3.300000
20
1.600000
0
VERTEX
8
1
10
-3.300000
20
1.000000
0
SEQEND
8
1
0
POLYLINE
8
1
66
1
40
0.016000
41
0.016000
0
VERTEX
8
1
10
-1.500000
20
1.100000
0
VERTEX
8
1
10
-1.500000
20
1.000000
0
VERTEX
8
1
10
-3.300000
20
1.000000
0
SEQEND
8
1
0
POLYLINE
8
1
66
1
40
0.016000
41
0.016000
0
VERTEX
8
1
10
-2.000000
20
2.600000
0
VERTEX
8
1
10
-2.000000
20
2.600000
0
VERTEX
8
1
10
-2.000000
20
2.600000
0
SEQEND
8
1
0
POLYLINE
8
1
66
1
40
0.016000
41
0.016000
0
VERTEX
8
1
10
-1.500000
20
3.300000
0
VERTEX
8
1
10
-2.000000
20
3.300000
0
VERTEX
8
1
10
-2.000000
20
2.600000
0
SEQEND
8
1
0
POLYLINE
8
1
66
1
40
0.016000
41
0.016000
0
VERTEX
8
1
10
-2.800000
20
3.100000
0
VERTEX
8
1
10
0.550000
20
3.100000
0
SEQEND
8
1
0
POLYLINE
8
1
66
1
40
0.016000
41
0.016000
0
VERTEX
8
1
10
-3.800000
20
3.100000
0
VERTEX
8
1
10
-3.800000
20
3.100000
0
VERTEX
8
1
10
-3.800000
20
3.100000
0
SEQEND
8
1
0
POLYLINE
8
1
66
1
40
0.016000
41
0.016000
0
VERTEX
8
1
10
-3.300000
20
3.800000
0
VERTEX
8
1
10
-3.800000
20
3.800000
0
VERTEX
8
1
10
-3.800000
20
3.100000
0
SEQEND
8
1
0
POLYLINE
8
1
66
1
40
0.016000
41
0.016000
0
VERTEX
8
1
10
-3.800000
20
-2.500000
0
VERTEX
8
1
10
-3.800000
20
-2.600000
0
VERTEX
8
1
10
-3.800000
20
-2.600000
0
VERTEX
8
1
10
-3.800000
20
-4.300000
0
SEQEND
8
1
0
POLYLINE
8
1
66
1
40
0.016000
41
0.016000
0
VERTEX
8
1
10
-1.100000
20
-2.500000
0
VERTEX
8
1
10
-1.100000
20
-2.600000
0
VERTEX
8
1
10
-1.100000
20
-2.600000
0
VERTEX
8
1
10
-1.100000
20
-4.300000
0
SEQEND
8
1
0
POLYLINE
8
1
66
1
40
0.016000
41
0.016000
0
VERTEX
8
1
10
1.600000
20
-2.500000
0
VERTEX
8
1
10
1.600000
20
-2.600000
0
VERTEX
8
1
10
1.600000
20
-2.600000
0
SEQEND
8
1
0
POLYLINE
8
1
66
1
40
0.016000
41
0.016000
0
VERTEX
8
1
10
1.800000
20
-4.300000
0
VERTEX
8
1
10
1.600000
20
-4.300000
0
SEQEND
8
1
0
POLYLINE
8
1
66
1
40
0.016000
41
0.016000
0
VERTEX
8
1
10
1.600000
20
-2.600000
0
VERTEX
8
1
10
1.600000
20
-4.300000
0
SEQEND
8
1
0
POLYLINE
8
1
66
1
40
0.016000
41
0.016000
0
VERTEX
8
1
10
4.500000
20
-2.500000
0
VERTEX
8
1
10
4.500000
20
-2.600000
0
VERTEX
8
1
10
4.500000
20
-2.600000
0
VERTEX
8
1
10
4.500000
20
-4.300000
0
SEQEND
8
1
0
POLYLINE
8
1
66
1
40
0.016000
41
0.016000
0
VERTEX
8
1
10
1.600000
20
-2.300000
0
VERTEX
8
1
10
1.400000
20
-2.300000
0
VERTEX
8
1
10
1.400000
20
-1.400000
0
VERTEX
8
1
10
-1.300000
20
-1.400000
0
SEQEND
8
1
0
POLYLINE
8
1
66
1
40
0.016000
41
0.016000
0
VERTEX
8
1
10
-1.100000
20
-2.300000
0
VERTEX
8
1
10
-1.300000
20
-2.300000
0
VERTEX
8
1
10
-1.300000
20
-1.400000
0
VERTEX
8
1
10
-4.000000
20
-1.400000
0
SEQEND
8
1
0
POLYLINE
8
1
66
1
40
0.016000
41
0.016000
0
VERTEX
8
1
10
-3.800000
20
-2.300000
0
VERTEX
8
1
10
-4.000000
20
-2.300000
0
VERTEX
8
1
10
-4.000000
20
-1.400000
0
SEQEND
8
1
0
POLYLINE
8
1
66
1
40
0.016000
41
0.016000
0
VERTEX
8
1
10
-4.700000
20
-2.600000
0
VERTEX
8
1
10
-4.700000
20
-1.400000
0
VERTEX
8
1
10
-4.000000
20
-1.400000
0
SEQEND
8
1
0
POLYLINE
8
1
66
1
40
0.016000
41
0.016000
0
VERTEX
8
1
10
-1.100000
20
-4.300000
0
VERTEX
8
1
10
-1.600000
20
-4.300000
0
SEQEND
8
1
0
POLYLINE
8
1
66
1
40
0.016000
41
0.016000
0
VERTEX
8
1
10
-3.800000
20
-4.300000
0
VERTEX
8
1
10
-1.600000
20
-4.300000
0
SEQEND
8
1
0
POLYLINE
8
1
66
1
40
0.016000
41
0.016000
0
VERTEX
8
1
10
-1.600000
20
-2.950000
0
VERTEX
8
1
10
-1.600000
20
-4.300000
0
SEQEND
8
1
0
POLYLINE
8
1
66
1
40
0.016000
41
0.016000
0
VERTEX
8
1
10
1.600000
20
-4.300000
0
VERTEX
8
1
10
1.100000
20
-4.300000
0
SEQEND
8
1
0
POLYLINE
8
1
66
1
40
0.016000
41
0.016000
0
VERTEX
8
1
10
-1.100000
20
-4.300000
0
VERTEX
8
1
10
1.100000
20
-4.300000
0
SEQEND
8
1
0
POLYLINE
8
1
66
1
40
0.016000
41
0.016000
0
VERTEX
8
1
10
1.100000
20
-2.950000
0
VERTEX
8
1
10
1.100000
20
-4.300000
0
SEQEND
8
1
0
POLYLINE
8
1
66
1
40
0.016000
41
0.016000
0
VERTEX
8
1
10
4.500000
20
-4.300000
0
VERTEX
8
1
10
3.800000
20
-4.300000
0
SEQEND
8
1
0
POLYLINE
8
1
66
1
40
0.016000
41
0.016000
0
VERTEX
8
1
10
1.800000
20
-4.300000
0
VERTEX
8
1
10
3.800000
20
-4.300000
0
SEQEND
8
1
0
POLYLINE
8
1
66
1
40
0.016000
41
0.016000
0
VERTEX
8
1
10
3.800000
20
-2.950000
0
VERTEX
8
1
10
3.800000
20
-4.300000
0
SEQEND
8
1
0
POLYLINE
8
1
66
1
40
0.016000
41
0.016000
0
VERTEX
8
1
10
-3.800000
20
-4.300000
0
VERTEX
8
1
10
-4.700000
20
-4.300000
0
SEQEND
8
1
0
POLYLINE
8
1
66
1
40
0.016000
41
0.016000
0
VERTEX
8
1
10
-4.700000
20
-3.100000
0
VERTEX
8
1
10
-4.700000
20
-4.300000
0
SEQEND
8
1
0
POLYLINE
8
1
66
1
40
0.016000
41
0.016000
0
VERTEX
8
1
10
-1.500000
20
3.300000
0
VERTEX
8
1
10
-1.500000
20
3.800000
0
SEQEND
8
1
0
POLYLINE
8
1
66
1
40
0.016000
41
0.016000
0
VERTEX
8
1
10
-3.300000
20
3.800000
0
VERTEX
8
1
10
-1.500000
20
3.800000
0
SEQEND
8
1
0
POLYLINE
8
1
66
1
40
0.016000
41
0.016000
0
VERTEX
8
1
10
0.450000
20
2.100000
0
VERTEX
8
1
10
0.450000
20
2.100000
0
SEQEND
8
1
0
POLYLINE
8
1
66
1
40
0.016000
41
0.016000
0
VERTEX
8
1
10
0.400000
20
3.300000
0
VERTEX
8
1
10
0.400000
20
2.300000
0
VERTEX
8
1
10
0.450000
20
2.300000
0
VERTEX
8
1
10
0.450000
20
2.100000
0
SEQEND
8
1
0
POLYLINE
8
1
66
1
40
0.016000
41
0.016000
0
VERTEX
8
1
10
0.400000
20
3.800000
0
VERTEX
8
1
10
0.400000
20
3.800000
0
SEQEND
8
1
0
POLYLINE
8
1
66
1
40
0.016000
41
0.016000
0
VERTEX
8
1
10
4.500000
20
-2.300000
0
VERTEX
8
1
10
4.200000
20
-2.300000
0
VERTEX
8
1
10
4.200000
20
-1.400000
0
VERTEX
8
1
10
3.000000
20
-1.400000
0
SEQEND
8
1
0
POLYLINE
8
1
66
1
40
0.016000
41
0.016000
0
VERTEX
8
1
10
1.400000
20
-1.400000
0
VERTEX
8
1
10
3.000000
20
-1.400000
0
VERTEX
8
1
10
3.000000
20
1.350000
0
SEQEND
8
1
0
POLYLINE
8
1
66
1
40
0.016000
41
0.016000
0
VERTEX
8
1
10
0.400000
20
3.800000
0
VERTEX
8
1
10
3.000000
20
3.800000
0
VERTEX
8
1
10
3.000000
20
1.850000
0
SEQEND
8
1
0
POLYLINE
8
1
66
1
40
0.016000
41
0.016000
0
VERTEX
8
1
10
4.500000
20
-2.100000
0
VERTEX
8
1
10
4.400000
20
-2.100000
0
VERTEX
8
1
10
4.400000
20
0.600000
0
VERTEX
8
1
10
1.500000
20
0.600000
0
SEQEND
8
1
0
POLYLINE
8
1
66
1
40
0.016000
41
0.016000
0
VERTEX
8
1
10
0.500000
20
2.100000
0
VERTEX
8
1
10
0.500000
20
2.100000
0
SEQEND
8
1
0
POLYLINE
8
1
66
1
40
0.016000
41
0.016000
0
VERTEX
8
1
10
0.450000
20
2.100000
0
VERTEX
8
1
10
0.500000
20
2.100000
0
SEQEND
8
1
0
POLYLINE
8
1
66
1
40
0.016000
41
0.016000
0
VERTEX
8
1
10
0.500000
20
1.900000
0
VERTEX
8
1
10
0.500000
20
1.900000
0
SEQEND
8
1
0
POLYLINE
8
1
66
1
40
0.016000
41
0.016000
0
VERTEX
8
1
10
1.500000
20
1.300000
0
VERTEX
8
1
10
1.500000
20
1.600000
0
VERTEX
8
1
10
0.400000
20
1.600000
0
VERTEX
8
1
10
0.400000
20
1.900000
0
VERTEX
8
1
10
0.500000
20
1.900000
0
SEQEND
8
1
0
POLYLINE
8
1
66
1
40
0.016000
41
0.016000
0
VERTEX
8
1
10
1.500000
20
2.000000
0
VERTEX
8
1
10
1.500000
20
2.000000
0
SEQEND
8
1
0
POLYLINE
8
1
66
1
40
0.016000
41
0.016000
0
VERTEX
8
1
10
0.500000
20
1.400000
0
VERTEX
8
1
10
0.500000
20
1.400000
0
SEQEND
8
1
0
POLYLINE
8
1
66
1
40
0.016000
41
0.016000
0
VERTEX
8
1
10
1.500000
20
2.000000
0
VERTEX
8
1
10
1.500000
20
1.700000
0
VERTEX
8
1
10
0.500000
20
1.700000
0
VERTEX
8
1
10
0.500000
20
1.400000
0
SEQEND
8
1
0
POLYLINE
8
1
66
1
40
0.016000
41
0.016000
0
VERTEX
8
1
10
0.500000
20
0.700000
0
VERTEX
8
1
10
0.500000
20
0.700000
0
SEQEND
8
1
0
POLYLINE
8
1
66
1
40
0.016000
41
0.016000
0
VERTEX
8
1
10
-1.000000
20
2.600000
0
VERTEX
8
1
10
-0.300000
20
2.600000
0
VERTEX
8
1
10
-0.300000
20
0.700000
0
VERTEX
8
1
10
0.500000
20
0.700000
0
SEQEND
8
1
0
POLYLINE
8
1
66
1
40
0.016000
41
0.016000
0
VERTEX
8
1
10
0.500000
20
0.500000
0
VERTEX
8
1
10
0.500000
20
0.500000
0
SEQEND
8
1
0
POLYLINE
8
1
66
1
40
0.016000
41
0.016000
0
VERTEX
8
1
10
1.500000
20
2.000000
0
VERTEX
8
1
10
1.800000
20
2.000000
0
VERTEX
8
1
10
1.800000
20
1.000000
0
VERTEX
8
1
10
0.300000
20
1.000000
0
VERTEX
8
1
10
0.300000
20
0.500000
0
VERTEX
8
1
10
0.500000
20
0.500000
0
SEQEND
8
1
0
POLYLINE
8
1
66
1
40
0.016000
41
0.016000
0
VERTEX
8
1
10
-1.500000
20
3.800000
0
VERTEX
8
1
10
-0.200000
20
3.800000
0
SEQEND
8
1
0
POLYLINE
8
1
66
1
40
0.016000
41
0.016000
0
VERTEX
8
1
10
0.400000
20
3.800000
0
VERTEX
8
1
10
-0.200000
20
3.800000
0
VERTEX
8
1
10
-0.200000
20
1.800000
0
SEQEND
8
1
0
POLYLINE
8
1
66
1
40
0.016000
41
0.016000
0
VERTEX
8
1
10
-0.050000
20
2.100000
0
VERTEX
8
1
10
-0.500000
20
2.100000
0
VERTEX
8
1
10
-0.500000
20
-0.800000
0
SEQEND
8
1
0
POLYLINE
8
1
66
1
40
0.016000
41
0.016000
0
VERTEX
8
1
10
-4.700000
20
-4.300000
0
VERTEX
8
1
10
-5.100000
20
-4.300000
0
VERTEX
8
1
10
-5.100000
20
-1.200000
0
VERTEX
8
1
10
-0.500000
20
-1.200000
0
VERTEX
8
1
10
-0.500000
20
-0.800000
0
SEQEND
8
1
0
POLYLINE
8
1
66
1
40
0.016000
41
0.016000
0
VERTEX
8
1
10
0.500000
20
1.200000
0
VERTEX
8
1
10
-0.200000
20
1.200000
0
SEQEND
8
1
0
POLYLINE
8
1
66
1
40
0.016000
41
0.016000
0
VERTEX
8
1
10
-0.200000
20
1.300000
0
VERTEX
8
1
10
-0.200000
20
1.200000
0
SEQEND
8
1
0
POLYLINE
8
1
66
1
40
0.016000
41
0.016000
0
VERTEX
8
1
10
-2.800000
20
-2.800000
0
VERTEX
8
1
10
-2.800000
20
-2.900000
0
VERTEX
8
1
10
-4.000000
20
-2.900000
0
VERTEX
8
1
10
-4.000000
20
-2.500000
0
VERTEX
8
1
10
-4.500000
20
-2.500000
0
VERTEX
8
1
10
-4.500000
20
-1.500000
0
VERTEX
8
1
10
-1.400000
20
-1.500000
0
VERTEX
8
1
10
-1.400000
20
1.000000
0
VERTEX
8
1
10
-0.200000
20
1.000000
0
VERTEX
8
1
10
-0.200000
20
1.200000
0
SEQEND
8
1
0
POLYLINE
8
1
66
1
40
0.016000
41
0.016000
0
VERTEX
8
1
10
6.700000
20
-2.950000
0
VERTEX
8
1
10
6.700000
20
-4.300000
0
VERTEX
8
1
10
4.500000
20
-4.300000
0
SEQEND
8
1
0
POLYLINE
8
1
66
1
40
0.016000
41
0.016000
0
VERTEX
8
1
10
7.100000
20
-2.600000
0
VERTEX
8
1
10
7.100000
20
-4.300000
0
VERTEX
8
1
10
6.700000
20
-4.300000
0
SEQEND
8
1
0
POLYLINE
8
1
66
1
40
0.016000
41
0.016000
0
VERTEX
8
1
10
4.500000
20
-2.000000
0
VERTEX
8
1
10
4.500000
20
3.100000
0
VERTEX
8
1
10
1.050000
20
3.100000
0
SEQEND
8
1
0
POLYLINE
8
1
66
1
40
0.016000
41
0.016000
0
VERTEX
8
1
10
7.100000
20
-2.100000
0
VERTEX
8
1
10
7.100000
20
3.100000
0
VERTEX
8
1
10
4.500000
20
3.100000
0
SEQEND
8
1
0
POLYLINE
8
2
66
1
40
0.016000
41
0.016000
0
VERTEX
8
2
10
6.100000
20
-2.850000
0
VERTEX
8
2
10
6.750000
20
-2.850000
0
VERTEX
8
2
10
6.750000
20
-1.900000
0
VERTEX
8
2
10
6.100000
20
-1.900000
0
VERTEX
8
2
10
6.100000
20
-2.850000
0
SEQEND
8
2
0
POLYLINE
8
2
66
1
40
0.016000
41
0.016000
0
VERTEX
8
2
10
6.000000
20
-2.000000
0
VERTEX
8
2
10
6.100000
20
-2.000000
0
SEQEND
8
2
0
POLYLINE
8
2
66
1
40
0.016000
41
0.016000
0
VERTEX
8
2
10
6.000000
20
-2.100000
0
VERTEX
8
2
10
6.100000
20
-2.100000
0
SEQEND
8
2
0
POLYLINE
8
2
66
1
40
0.016000
41
0.016000
0
VERTEX
8
2
10
6.000000
20
-2.200000
0
VERTEX
8
2
10
6.100000
20
-2.200000
0
SEQEND
8
2
0
POLYLINE
8
2
66
1
40
0.016000
41
0.016000
0
VERTEX
8
2
10
6.000000
20
-2.300000
0
VERTEX
8
2
10
6.100000
20
-2.300000
0
SEQEND
8
2
0
POLYLINE
8
2
66
1
40
0.016000
41
0.016000
0
VERTEX
8
2
10
6.000000
20
-2.400000
0
VERTEX
8
2
10
6.100000
20
-2.400000
0
SEQEND
8
2
0
POLYLINE
8
2
66
1
40
0.016000
41
0.016000
0
VERTEX
8
2
10
6.000000
20
-2.500000
0
VERTEX
8
2
10
6.100000
20
-2.500000
0
SEQEND
8
2
0
POLYLINE
8
2
66
1
40
0.016000
41
0.016000
0
VERTEX
8
2
10
6.000000
20
-2.600000
0
VERTEX
8
2
10
6.100000
20
-2.600000
0
SEQEND
8
2
0
POLYLINE
8
2
66
1
40
0.016000
41
0.016000
0
VERTEX
8
2
10
6.700000
20
-2.950000
0
VERTEX
8
2
10
6.700000
20
-2.850000
0
SEQEND
8
2
0
POLYLINE
8
1
66
1
40
0.016000
41
0.016000
0
VERTEX
8
1
10
1.800000
20
-4.400000
0
VERTEX
8
1
10
1.800000
20
-4.500000
0
SEQEND
8
1
0
POLYLINE
8
1
66
1
40
0.016000
41
0.016000
0
VERTEX
8
1
10
1.700000
20
-4.500000
0
VERTEX
8
1
10
1.900000
20
-4.500000
0
SEQEND
8
1
0
POLYLINE
8
1
66
1
40
0.016000
41
0.016000
0
VERTEX
8
1
10
1.750000
20
-4.550000
0
VERTEX
8
1
10
1.850000
20
-4.550000
0
SEQEND
8
1
0
POLYLINE
8
1
66
1
40
0.016000
41
0.016000
0
VERTEX
8
1
10
1.790000
20
-4.600000
0
VERTEX
8
1
10
1.810000
20
-4.600000
0
SEQEND
8
1
0
POLYLINE
8
2
66
1
40
0.016000
41
0.016000
0
VERTEX
8
2
10
3.200000
20
-2.850000
0
VERTEX
8
2
10
3.850000
20
-2.850000
0
VERTEX
8
2
10
3.850000
20
-1.900000
0
VERTEX
8
2
10
3.200000
20
-1.900000
0
VERTEX
8
2
10
3.200000
20
-2.850000
0
SEQEND
8
2
0
POLYLINE
8
2
66
1
40
0.016000
41
0.016000
0
VERTEX
8
2
10
3.100000
20
-2.000000
0
VERTEX
8
2
10
3.200000
20
-2.000000
0
SEQEND
8
2
0
POLYLINE
8
2
66
1
40
0.016000
41
0.016000
0
VERTEX
8
2
10
3.100000
20
-2.100000
0
VERTEX
8
2
10
3.200000
20
-2.100000
0
SEQEND
8
2
0
POLYLINE
8
2
66
1
40
0.016000
41
0.016000
0
VERTEX
8
2
10
3.100000
20
-2.200000
0
VERTEX
8
2
10
3.200000
20
-2.200000
0
SEQEND
8
2
0
POLYLINE
8
2
66
1
40
0.016000
41
0.016000
0
VERTEX
8
2
10
3.100000
20
-2.300000
0
VERTEX
8
2
10
3.200000
20
-2.300000
0
SEQEND
8
2
0
POLYLINE
8
2
66
1
40
0.016000
41
0.016000
0
VERTEX
8
2
10
3.100000
20
-2.400000
0
VERTEX
8
2
10
3.200000
20
-2.400000
0
SEQEND
8
2
0
POLYLINE
8
2
66
1
40
0.016000
41
0.016000
0
VERTEX
8
2
10
3.100000
20
-2.500000
0
VERTEX
8
2
10
3.200000
20
-2.500000
0
SEQEND
8
2
0
POLYLINE
8
2
66
1
40
0.016000
41
0.016000
0
VERTEX
8
2
10
3.100000
20
-2.600000
0
VERTEX
8
2
10
3.200000
20
-2.600000
0
SEQEND
8
2
0
POLYLINE
8
2
66
1
40
0.016000
41
0.016000
0
VERTEX
8
2
10
3.800000
20
-2.950000
0
VERTEX
8
2
10
3.800000
20
-2.850000
0
SEQEND
8
2
0
POLYLINE
8
2
66
1
40
0.016000
41
0.016000
0
VERTEX
8
2
10
0.500000
20
-2.850000
0
VERTEX
8
2
10
1.150000
20
-2.850000
0
VERTEX
8
2
10
1.150000
20
-1.900000
0
VERTEX
8
2
10
0.500000
20
-1.900000
0
VERTEX
8
2
10
0.500000
20
-2.850000
0
SEQEND
8
2
0
POLYLINE
8
2
66
1
40
0.016000
41
0.016000
0
VERTEX
8
2
10
0.400000
20
-2.000000
0
VERTEX
8
2
10
0.500000
20
-2.000000
0
SEQEND
8
2
0
POLYLINE
8
2
66
1
40
0.016000
41
0.016000
0
VERTEX
8
2
10
0.400000
20
-2.100000
0
VERTEX
8
2
10
0.500000
20
-2.100000
0
SEQEND
8
2
0
POLYLINE
8
2
66
1
40
0.016000
41
0.016000
0
VERTEX
8
2
10
0.400000
20
-2.200000
0
VERTEX
8
2
10
0.500000
20
-2.200000
0
SEQEND
8
2
0
POLYLINE
8
2
66
1
40
0.016000
41
0.016000
0
VERTEX
8
2
10
0.400000
20
-2.300000
0
VERTEX
8
2
10
0.500000
20
-2.300000
0
SEQEND
8
2
0
POLYLINE
8
2
66
1
40
0.016000
41
0.016000
0
VERTEX
8
2
10
0.400000
20
-2.400000
0
VERTEX
8
2
10
0.500000
20
-2.400000
0
SEQEND
8
2
0
POLYLINE
8
2
66
1
40
0.016000
41
0.016000
0
VERTEX
8
2
10
0.400000
20
-2.500000
0
VERTEX
8
2
10
0.500000
20
-2.500000
0
SEQEND
8
2
0
POLYLINE
8
2
66
1
40
0.016000
41
0.016000
0
VERTEX
8
2
10
0.400000
20
-2.600000
0
VERTEX
8
2
10
0.500000
20
-2.600000
0
SEQEND
8
2
0
POLYLINE
8
2
66
1
40
0.016000
41
0.016000
0
VERTEX
8
2
10
1.100000
20
-2.950000
0
VERTEX
8
2
10
1.100000
20
-2.850000
0
SEQEND
8
2
0
POLYLINE
8
2
66
1
40
0.016000
41
0.016000
0
VERTEX
8
2
10
-2.200000
20
-2.850000
0
VERTEX
8
2
10
-1.550000
20
-2.850000
0
VERTEX
8
2
10
-1.550000
20
-1.900000
0
VERTEX
8
2
10
-2.200000
20
-1.900000
0
VERTEX
8
2
10
-2.200000
20
-2.850000
0
SEQEND
8
2
0
POLYLINE
8
2
66
1
40
0.016000
41
0.016000
0
VERTEX
8
2
10
-2.300000
20
-2.000000
0
VERTEX
8
2
10
-2.200000
20
-2.000000
0
SEQEND
8
2
0
POLYLINE
8
2
66
1
40
0.016000
41
0.016000
0
VERTEX
8
2
10
-2.300000
20
-2.100000
0
VERTEX
8
2
10
-2.200000
20
-2.100000
0
SEQEND
8
2
0
POLYLINE
8
2
66
1
40
0.016000
41
0.016000
0
VERTEX
8
2
10
-2.300000
20
-2.200000
0
VERTEX
8
2
10
-2.200000
20
-2.200000
0
SEQEND
8
2
0
POLYLINE
8
2
66
1
40
0.016000
41
0.016000
0
VERTEX
8
2
10
-2.300000
20
-2.300000
0
VERTEX
8
2
10
-2.200000
20
-2.300000
0
SEQEND
8
2
0
POLYLINE
8
2
66
1
40
0.016000
41
0.016000
0
VERTEX
8
2
10
-2.300000
20
-2.400000
0
VERTEX
8
2
10
-2.200000
20
-2.400000
0
SEQEND
8
2
0
POLYLINE
8
2
66
1
40
0.016000
41
0.016000
0
VERTEX
8
2
10
-2.300000
20
-2.500000
0
VERTEX
8
2
10
-2.200000
20
-2.500000
0
SEQEND
8
2
0
POLYLINE
8
2
66
1
40
0.016000
41
0.016000
0
VERTEX
8
2
10
-2.300000
20
-2.600000
0
VERTEX
8
2
10
-2.200000
20
-2.600000
0
SEQEND
8
2
0
POLYLINE
8
2
66
1
40
0.016000
41
0.016000
0
VERTEX
8
2
10
-1.600000
20
-2.950000
0
VERTEX
8
2
10
-1.600000
20
-2.850000
0
SEQEND
8
2
0
POLYLINE
8
3
66
1
40
0.008000
41
0.008000
0
VERTEX
8
3
10
-3.350000
20
4.250000
0
VERTEX
8
3
10
-3.450000
20
4.300000
0
VERTEX
8
3
10
-3.400000
20
4.350000
0
VERTEX
8
3
10
-3.350000
20
4.250000
0
SEQEND
8
3
0
POLYLINE
8
3
66
1
40
0.008000
41
0.008000
0
VERTEX
8
3
10
-3.300000
20
4.200000
0
VERTEX
8
3
10
-3.350000
20
4.250000
0
SEQEND
8
3
0
POLYLINE
8
3
66
1
40
0.008000
41
0.008000
0
VERTEX
8
3
10
-3.300000
20
4.290000
0
VERTEX
8
3
10
-3.280000
20
4.290000
0
SEQEND
8
3
0
POLYLINE
8
3
66
1
40
0.008000
41
0.008000
0
VERTEX
8
3
10
-3.260000
20
4.290000
0
VERTEX
8
3
10
-3.240000
20
4.290000
0
SEQEND
8
3
0
POLYLINE
8
3
66
1
40
0.008000
41
0.008000
0
VERTEX
8
3
10
-3.220000
20
4.290000
0
VERTEX
8
3
10
-3.200000
20
4.290000
0
SEQEND
8
3
0
POLYLINE
8
3
66
1
40
0.008000
41
0.008000
0
VERTEX
8
3
10
-3.180000
20
4.290000
0
VERTEX
8
3
10
-3.160000
20
4.290000
0
SEQEND
8
3
0
POLYLINE
8
3
66
1
40
0.008000
41
0.008000
0
VERTEX
8
3
10
-3.300000
20
4.260000
0
VERTEX
8
3
10
-3.120000
20
4.260000
0
SEQEND
8
3
0
POLYLINE
8
3
66
1
40
0.008000
41
0.008000
0
VERTEX
8
3
10
-3.140000
20
4.290000
0
VERTEX
8
3
10
-3.120000
20
4.290000
0
SEQEND
8
3
0
TEXT
8
3
10
-3.960000
20
4.310000
40
0.080000
41
1.000000
1
R16(1)
0
POLYLINE
8
1
66
1
40
0.016000
41
0.016000
0
VERTEX
8
1
10
-3.300000
20
0.900000
0
VERTEX
8
1
10
-3.300000
20
0.800000
0
SEQEND
8
1
0
POLYLINE
8
1
66
1
40
0.016000
41
0.016000
0
VERTEX
8
1
10
-3.400000
20
0.800000
0
VERTEX
8
1
10
-3.200000
20
0.800000
0
SEQEND
8
1
0
POLYLINE
8
1
66
1
40
0.016000
41
0.016000
0
VERTEX
8
1
10
-3.350000
20
0.750000
0
VERTEX
8
1
10
-3.250000
20
0.750000
0
SEQEND
8
1
0
POLYLINE
8
1
66
1
40
0.016000
41
0.016000
0
VERTEX
8
1
10
-3.310000
20
0.700000
0
VERTEX
8
1
10
-3.290000
20
0.700000
0
SEQEND
8
1
0
POLYLINE
8
2
66
1
40
0.016000
41
0.016000
0
VERTEX
8
2
10
4.700000
20
-2.900000
0
VERTEX
8
2
10
5.300000
20
-2.900000
0
VERTEX
8
2
10
5.300000
20
-1.900000
0
VERTEX
8
2
10
4.700000
20
-1.900000
0
VERTEX
8
2
10
4.700000
20
-2.900000
0
SEQEND
8
2
0
POLYLINE
8
2
66
1
40
0.016000
41
0.016000
0
VERTEX
8
2
10
4.700000
20
-1.970000
0
VERTEX
8
2
10
4.730000
20
-2.000000
0
VERTEX
8
2
10
4.700000
20
-2.030000
0
VERTEX
8
2
10
4.700000
20
-1.970000
0
SEQEND
8
2
0
POLYLINE
8
2
66
1
40
0.016000
41
0.016000
0
VERTEX
8
2
10
4.500000
20
-2.000000
0
VERTEX
8
2
10
4.700000
20
-2.000000
0
SEQEND
8
2
0
TEXT
8
0
10
4.750000
20
-2.040000
40
0.080000
41
1.000000
1
CLKUP
0
TEXT
8
0
10
4.520000
20
-1.990000
40
0.080000
41
1.000000
1
9
0
POLYLINE
8
2
66
1
40
0.016000
41
0.016000
0
VERTEX
8
2
10
4.700000
20
-2.070000
0
VERTEX
8
2
10
4.730000
20
-2.100000
0
VERTEX
8
2
10
4.700000
20
-2.130000
0
VERTEX
8
2
10
4.700000
20
-2.070000
0
SEQEND
8
2
0
POLYLINE
8
2
66
1
40
0.016000
41
0.016000
0
VERTEX
8
2
10
4.500000
20
-2.100000
0
VERTEX
8
2
10
4.700000
20
-2.100000
0
SEQEND
8
2
0
TEXT
8
0
10
4.750000
20
-2.140000
40
0.080000
41
1.000000
1
CLKDN
0
TEXT
8
0
10
4.520000
20
-2.090000
40
0.080000
41
1.000000
1
7
0
POLYLINE
8
2
66
1
40
0.016000
41
0.016000
0
VERTEX
8
2
10
4.500000
20
-2.300000
0
VERTEX
8
2
10
4.700000
20
-2.300000
0
SEQEND
8
2
0
TEXT
8
0
10
4.750000
20
-2.340000
40
0.080000
41
1.000000
1
RESET
0
TEXT
8
0
10
4.520000
20
-2.290000
40
0.080000
41
1.000000
1
5
0
POLYLINE
8
2
66
1
40
0.016000
41
0.016000
0
VERTEX
8
2
10
4.500000
20
-2.500000
0
VERTEX
8
2
10
4.700000
20
-2.500000
0
SEQEND
8
2
0
TEXT
8
0
10
4.750000
20
-2.540000
40
0.080000
41
1.000000
1
TE
0
TEXT
8
0
10
4.520000
20
-2.490000
40
0.080000
41
1.000000
1
4
0
POLYLINE
8
2
66
1
40
0.016000
41
0.016000
0
VERTEX
8
2
10
4.500000
20
-2.600000
0
VERTEX
8
2
10
4.700000
20
-2.600000
0
SEQEND
8
2
0
TEXT
8
0
10
4.750000
20
-2.640000
40
0.080000
41
1.000000
1
LE
0
TEXT
8
0
10
4.520000
20
-2.590000
40
0.080000
41
1.000000
1
6
0
POLYLINE
8
2
66
1
40
0.016000
41
0.016000
0
VERTEX
8
2
10
5.500000
20
-2.000000
0
VERTEX
8
2
10
5.300000
20
-2.000000
0
SEQEND
8
2
0
TEXT
8
0
10
5.170000
20
-2.040000
40
0.080000
41
1.000000
1
A
0
TEXT
8
0
10
5.400000
20
-1.990000
40
0.080000
41
1.000000
1
1
0
POLYLINE
8
2
66
1
40
0.016000
41
0.016000
0
VERTEX
8
2
10
5.500000
20
-2.100000
0
VERTEX
8
2
10
5.300000
20
-2.100000
0
SEQEND
8
2
0
TEXT
8
0
10
5.170000
20
-2.140000
40
0.080000
41
1.000000
1
B
0
TEXT
8
0
10
5.400000
20
-2.090000
40
0.080000
41
1.000000
1
15
0
POLYLINE
8
2
66
1
40
0.016000
41
0.016000
0
VERTEX
8
2
10
5.500000
20
-2.200000
0
VERTEX
8
2
10
5.300000
20
-2.200000
0
SEQEND
8
2
0
TEXT
8
0
10
5.170000
20
-2.240000
40
0.080000
41
1.000000
1
C
0
TEXT
8
0
10
5.400000
20
-2.190000
40
0.080000
41
1.000000
1
14
0
POLYLINE
8
2
66
1
40
0.016000
41
0.016000
0
VERTEX
8
2
10
5.500000
20
-2.300000
0
VERTEX
8
2
10
5.300000
20
-2.300000
0
SEQEND
8
2
0
TEXT
8
0
10
5.170000
20
-2.340000
40
0.080000
41
1.000000
1
D
0
TEXT
8
0
10
5.400000
20
-2.290000
40
0.080000
41
1.000000
1
13
0
POLYLINE
8
2
66
1
40
0.016000
41
0.016000
0
VERTEX
8
2
10
5.500000
20
-2.400000
0
VERTEX
8
2
10
5.300000
20
-2.400000
0
SEQEND
8
2
0
TEXT
8
0
10
5.170000
20
-2.440000
40
0.080000
41
1.000000
1
E
0
TEXT
8
0
10
5.400000
20
-2.390000
40
0.080000
41
1.000000
1
12
0
POLYLINE
8
2
66
1
40
0.016000
41
0.016000
0
VERTEX
8
2
10
5.500000
20
-2.500000
0
VERTEX
8
2
10
5.300000
20
-2.500000
0
SEQEND
8
2
0
TEXT
8
0
10
5.170000
20
-2.540000
40
0.080000
41
1.000000
1
F
0
TEXT
8
0
10
5.400000
20
-2.490000
40
0.080000
41
1.000000
1
3
0
POLYLINE
8
2
66
1
40
0.016000
41
0.016000
0
VERTEX
8
2
10
5.500000
20
-2.600000
0
VERTEX
8
2
10
5.300000
20
-2.600000
0
SEQEND
8
2
0
TEXT
8
0
10
5.170000
20
-2.640000
40
0.080000
41
1.000000
1
G
0
TEXT
8
0
10
5.400000
20
-2.590000
40
0.080000
41
1.000000
1
2
0
POLYLINE
8
2
66
1
40
0.016000
41
0.016000
0
VERTEX
8
2
10
5.500000
20
-2.800000
0
VERTEX
8
2
10
5.300000
20
-2.800000
0
SEQEND
8
2
0
TEXT
8
0
10
4.770000
20
-2.840000
40
0.080000
41
1.000000
1
BORROW
0
TEXT
8
0
10
5.400000
20
-2.790000
40
0.080000
41
1.000000
1
11
0
POLYLINE
8
2
66
1
40
0.016000
41
0.016000
0
VERTEX
8
2
10
5.500000
20
-2.700000
0
VERTEX
8
2
10
5.300000
20
-2.700000
0
SEQEND
8
2
0
TEXT
8
0
10
4.850000
20
-2.740000
40
0.080000
41
1.000000
1
CARRY
0
TEXT
8
0
10
5.400000
20
-2.690000
40
0.080000
41
1.000000
1
10
0
TEXT
8
0
10
4.692000
20
-1.877000
40
0.120000
41
0.666667
1
U4
0
TEXT
8
0
10
4.892000
20
-2.598000
40
0.080000
41
1.000000
1
40110
0
POLYLINE
8
2
66
1
40
0.016000
41
0.016000
0
VERTEX
8
2
10
-3.600000
20
-2.900000
0
VERTEX
8
2
10
-3.000000
20
-2.900000
0
VERTEX
8
2
10
-3.000000
20
-1.900000
0
VERTEX
8
2
10
-3.600000
20
-1.900000
0
VERTEX
8
2
10
-3.600000
20
-2.900000
0
SEQEND
8
2
0
POLYLINE
8
2
66
1
40
0.016000
41
0.016000
0
VERTEX
8
2
10
-3.600000
20
-1.970000
0
VERTEX
8
2
10
-3.570000
20
-2.000000
0
VERTEX
8
2
10
-3.600000
20
-2.030000
0
VERTEX
8
2
10
-3.600000
20
-1.970000
0
SEQEND
8
2
0
POLYLINE
8
2
66
1
40
0.016000
41
0.016000
0
VERTEX
8
2
10
-3.800000
20
-2.000000
0
VERTEX
8
2
10
-3.600000
20
-2.000000
0
SEQEND
8
2
0
TEXT
8
0
10
-3.550000
20
-2.040000
40
0.080000
41
1.000000
1
CLKUP
0
TEXT
8
0
10
-3.780000
20
-1.990000
40
0.080000
41
1.000000
1
9
0
POLYLINE
8
2
66
1
40
0.016000
41
0.016000
0
VERTEX
8
2
10
-3.600000
20
-2.070000
0
VERTEX
8
2
10
-3.570000
20
-2.100000
0
VERTEX
8
2
10
-3.600000
20
-2.130000
0
VERTEX
8
2
10
-3.600000
20
-2.070000
0
SEQEND
8
2
0
POLYLINE
8
2
66
1
40
0.016000
41
0.016000
0
VERTEX
8
2
10
-3.800000
20
-2.100000
0
VERTEX
8
2
10
-3.600000
20
-2.100000
0
SEQEND
8
2
0
TEXT
8
0
10
-3.550000
20
-2.140000
40
0.080000
41
1.000000
1
CLKDN
0
TEXT
8
0
10
-3.780000
20
-2.090000
40
0.080000
41
1.000000
1
7
0
POLYLINE
8
2
66
1
40
0.016000
41
0.016000
0
VERTEX
8
2
10
-3.800000
20
-2.300000
0
VERTEX
8
2
10
-3.600000
20
-2.300000
0
SEQEND
8
2
0
TEXT
8
0
10
-3.550000
20
-2.340000
40
0.080000
41
1.000000
1
RESET
0
TEXT
8
0
10
-3.780000
20
-2.290000
40
0.080000
41
1.000000
1
5
0
POLYLINE
8
2
66
1
40
0.016000
41
0.016000
0
VERTEX
8
2
10
-3.800000
20
-2.500000
0
VERTEX
8
2
10
-3.600000
20
-2.500000
0
SEQEND
8
2
0
TEXT
8
0
10
-3.550000
20
-2.540000
40
0.080000
41
1.000000
1
TE
0
TEXT
8
0
10
-3.780000
20
-2.490000
40
0.080000
41
1.000000
1
4
0
POLYLINE
8
2
66
1
40
0.016000
41
0.016000
0
VERTEX
8
2
10
-3.800000
20
-2.600000
0
VERTEX
8
2
10
-3.600000
20
-2.600000
0
SEQEND
8
2
0
TEXT
8
0
10
-3.550000
20
-2.640000
40
0.080000
41
1.000000
1
LE
0
TEXT
8
0
10
-3.780000
20
-2.590000
40
0.080000
41
1.000000
1
6
0
POLYLINE
8
2
66
1
40
0.016000
41
0.016000
0
VERTEX
8
2
10
-2.800000
20
-2.000000
0
VERTEX
8
2
10
-3.000000
20
-2.000000
0
SEQEND
8
2
0
TEXT
8
0
10
-3.130000
20
-2.040000
40
0.080000
41
1.000000
1
A
0
TEXT
8
0
10
-2.900000
20
-1.990000
40
0.080000
41
1.000000
1
1
0
POLYLINE
8
2
66
1
40
0.016000
41
0.016000
0
VERTEX
8
2
10
-2.800000
20
-2.100000
0
VERTEX
8
2
10
-3.000000
20
-2.100000
0
SEQEND
8
2
0
TEXT
8
0
10
-3.130000
20
-2.140000
40
0.080000
41
1.000000
1
B
0
TEXT
8
0
10
-2.900000
20
-2.090000
40
0.080000
41
1.000000
1
15
0
POLYLINE
8
2
66
1
40
0.016000
41
0.016000
0
VERTEX
8
2
10
-2.800000
20
-2.200000
0
VERTEX
8
2
10
-3.000000
20
-2.200000
0
SEQEND
8
2
0
TEXT
8
0
10
-3.130000
20
-2.240000
40
0.080000
41
1.000000
1
C
0
TEXT
8
0
10
-2.900000
20
-2.190000
40
0.080000
41
1.000000
1
14
0
POLYLINE
8
2
66
1
40
0.016000
41
0.016000
0
VERTEX
8
2
10
-2.800000
20
-2.300000
0
VERTEX
8
2
10
-3.000000
20
-2.300000
0
SEQEND
8
2
0
TEXT
8
0
10
-3.130000
20
-2.340000
40
0.080000
41
1.000000
1
D
0
TEXT
8
0
10
-2.900000
20
-2.290000
40
0.080000
41
1.000000
1
13
0
POLYLINE
8
2
66
1
40
0.016000
41
0.016000
0
VERTEX
8
2
10
-2.800000
20
-2.400000
0
VERTEX
8
2
10
-3.000000
20
-2.400000
0
SEQEND
8
2
0
TEXT
8
0
10
-3.130000
20
-2.440000
40
0.080000
41
1.000000
1
E
0
TEXT
8
0
10
-2.900000
20
-2.390000
40
0.080000
41
1.000000
1
12
0
POLYLINE
8
2
66
1
40
0.016000
41
0.016000
0
VERTEX
8
2
10
-2.800000
20
-2.500000
0
VERTEX
8
2
10
-3.000000
20
-2.500000
0
SEQEND
8
2
0
TEXT
8
0
10
-3.130000
20
-2.540000
40
0.080000
41
1.000000
1
F
0
TEXT
8
0
10
-2.900000
20
-2.490000
40
0.080000
41
1.000000
1
3
0
POLYLINE
8
2
66
1
40
0.016000
41
0.016000
0
VERTEX
8
2
10
-2.800000
20
-2.600000
0
VERTEX
8
2
10
-3.000000
20
-2.600000
0
SEQEND
8
2
0
TEXT
8
0
10
-3.130000
20
-2.640000
40
0.080000
41
1.000000
1
G
0
TEXT
8
0
10
-2.900000
20
-2.590000
40
0.080000
41
1.000000
1
2
0
POLYLINE
8
2
66
1
40
0.016000
41
0.016000
0
VERTEX
8
2
10
-2.800000
20
-2.800000
0
VERTEX
8
2
10
-3.000000
20
-2.800000
0
SEQEND
8
2
0
TEXT
8
0
10
-3.530000
20
-2.840000
40
0.080000
41
1.000000
1
BORROW
0
TEXT
8
0
10
-2.900000
20
-2.790000
40
0.080000
41
1.000000
1
11
0
POLYLINE
8
2
66
1
40
0.016000
41
0.016000
0
VERTEX
8
2
10
-2.800000
20
-2.700000
0
VERTEX
8
2
10
-3.000000
20
-2.700000
0
SEQEND
8
2
0
TEXT
8
0
10
-3.450000
20
-2.740000
40
0.080000
41
1.000000
1
CARRY
0
TEXT
8
0
10
-2.900000
20
-2.690000
40
0.080000
41
1.000000
1
10
0
TEXT
8
0
10
-3.608000
20
-1.877000
40
0.120000
41
0.666667
1
U1
0
TEXT
8
0
10
-3.408000
20
-2.598000
40
0.080000
41
1.000000
1
40110
0
POLYLINE
8
2
66
1
40
0.016000
41
0.016000
0
VERTEX
8
2
10
-0.900000
20
-2.900000
0
VERTEX
8
2
10
-0.300000
20
-2.900000
0
VERTEX
8
2
10
-0.300000
20
-1.900000
0
VERTEX
8
2
10
-0.900000
20
-1.900000
0
VERTEX
8
2
10
-0.900000
20
-2.900000
0
SEQEND
8
2
0
POLYLINE
8
2
66
1
40
0.016000
41
0.016000
0
VERTEX
8
2
10
-0.900000
20
-1.970000
0
VERTEX
8
2
10
-0.870000
20
-2.000000
0
VERTEX
8
2
10
-0.900000
20
-2.030000
0
VERTEX
8
2
10
-0.900000
20
-1.970000
0
SEQEND
8
2
0
POLYLINE
8
2
66
1
40
0.016000
41
0.016000
0
VERTEX
8
2
10
-1.100000
20
-2.000000
0
VERTEX
8
2
10
-0.900000
20
-2.000000
0
SEQEND
8
2
0
TEXT
8
0
10
-0.850000
20
-2.040000
40
0.080000
41
1.000000
1
CLKUP
0
TEXT
8
0
10
-1.080000
20
-1.990000
40
0.080000
41
1.000000
1
9
0
POLYLINE
8
2
66
1
40
0.016000
41
0.016000
0
VERTEX
8
2
10
-0.900000
20
-2.070000
0
VERTEX
8
2
10
-0.870000
20
-2.100000
0
VERTEX
8
2
10
-0.900000
20
-2.130000
0
VERTEX
8
2
10
-0.900000
20
-2.070000
0
SEQEND
8
2
0
POLYLINE
8
2
66
1
40
0.016000
41
0.016000
0
VERTEX
8
2
10
-1.100000
20
-2.100000
0
VERTEX
8
2
10
-0.900000
20
-2.100000
0
SEQEND
8
2
0
TEXT
8
0
10
-0.850000
20
-2.140000
40
0.080000
41
1.000000
1
CLKDN
0
TEXT
8
0
10
-1.080000
20
-2.090000
40
0.080000
41
1.000000
1
7
0
POLYLINE
8
2
66
1
40
0.016000
41
0.016000
0
VERTEX
8
2
10
-1.100000
20
-2.300000
0
VERTEX
8
2
10
-0.900000
20
-2.300000
0
SEQEND
8
2
0
TEXT
8
0
10
-0.850000
20
-2.340000
40
0.080000
41
1.000000
1
RESET
0
TEXT
8
0
10
-1.080000
20
-2.290000
40
0.080000
41
1.000000
1
5
0
POLYLINE
8
2
66
1
40
0.016000
41
0.016000
0
VERTEX
8
2
10
-1.100000
20
-2.500000
0
VERTEX
8
2
10
-0.900000
20
-2.500000
0
SEQEND
8
2
0
TEXT
8
0
10
-0.850000
20
-2.540000
40
0.080000
41
1.000000
1
TE
0
TEXT
8
0
10
-1.080000
20
-2.490000
40
0.080000
41
1.000000
1
4
0
POLYLINE
8
2
66
1
40
0.016000
41
0.016000
0
VERTEX
8
2
10
-1.100000
20
-2.600000
0
VERTEX
8
2
10
-0.900000
20
-2.600000
0
SEQEND
8
2
0
TEXT
8
0
10
-0.850000
20
-2.640000
40
0.080000
41
1.000000
1
LE
0
TEXT
8
0
10
-1.080000
20
-2.590000
40
0.080000
41
1.000000
1
6
0
POLYLINE
8
2
66
1
40
0.016000
41
0.016000
0
VERTEX
8
2
10
-0.100000
20
-2.000000
0
VERTEX
8
2
10
-0.300000
20
-2.000000
0
SEQEND
8
2
0
TEXT
8
0
10
-0.430000
20
-2.040000
40
0.080000
41
1.000000
1
A
0
TEXT
8
0
10
-0.200000
20
-1.990000
40
0.080000
41
1.000000
1
1
0
POLYLINE
8
2
66
1
40
0.016000
41
0.016000
0
VERTEX
8
2
10
-0.100000
20
-2.100000
0
VERTEX
8
2
10
-0.300000
20
-2.100000
0
SEQEND
8
2
0
TEXT
8
0
10
-0.430000
20
-2.140000
40
0.080000
41
1.000000
1
B
0
TEXT
8
0
10
-0.200000
20
-2.090000
40
0.080000
41
1.000000
1
15
0
POLYLINE
8
2
66
1
40
0.016000
41
0.016000
0
VERTEX
8
2
10
-0.100000
20
-2.200000
0
VERTEX
8
2
10
-0.300000
20
-2.200000
0
SEQEND
8
2
0
TEXT
8
0
10
-0.430000
20
-2.240000
40
0.080000
41
1.000000
1
C
0
TEXT
8
0
10
-0.200000
20
-2.190000
40
0.080000
41
1.000000
1
14
0
POLYLINE
8
2
66
1
40
0.016000
41
0.016000
0
VERTEX
8
2
10
-0.100000
20
-2.300000
0
VERTEX
8
2
10
-0.300000
20
-2.300000
0
SEQEND
8
2
0
TEXT
8
0
10
-0.430000
20
-2.340000
40
0.080000
41
1.000000
1
D
0
TEXT
8
0
10
-0.200000
20
-2.290000
40
0.080000
41
1.000000
1
13
0
POLYLINE
8
2
66
1
40
0.016000
41
0.016000
0
VERTEX
8
2
10
-0.100000
20
-2.400000
0
VERTEX
8
2
10
-0.300000
20
-2.400000
0
SEQEND
8
2
0
TEXT
8
0
10
-0.430000
20
-2.440000
40
0.080000
41
1.000000
1
E
0
TEXT
8
0
10
-0.200000
20
-2.390000
40
0.080000
41
1.000000
1
12
0
POLYLINE
8
2
66
1
40
0.016000
41
0.016000
0
VERTEX
8
2
10
-0.100000
20
-2.500000
0
VERTEX
8
2
10
-0.300000
20
-2.500000
0
SEQEND
8
2
0
TEXT
8
0
10
-0.430000
20
-2.540000
40
0.080000
41
1.000000
1
F
0
TEXT
8
0
10
-0.200000
20
-2.490000
40
0.080000
41
1.000000
1
3
0
POLYLINE
8
2
66
1
40
0.016000
41
0.016000
0
VERTEX
8
2
10
-0.100000
20
-2.600000
0
VERTEX
8
2
10
-0.300000
20
-2.600000
0
SEQEND
8
2
0
TEXT
8
0
10
-0.430000
20
-2.640000
40
0.080000
41
1.000000
1
G
0
TEXT
8
0
10
-0.200000
20
-2.590000
40
0.080000
41
1.000000
1
2
0
POLYLINE
8
2
66
1
40
0.016000
41
0.016000
0
VERTEX
8
2
10
-0.100000
20
-2.800000
0
VERTEX
8
2
10
-0.300000
20
-2.800000
0
SEQEND
8
2
0
TEXT
8
0
10
-0.830000
20
-2.840000
40
0.080000
41
1.000000
1
BORROW
0
TEXT
8
0
10
-0.200000
20
-2.790000
40
0.080000
41
1.000000
1
11
0
POLYLINE
8
2
66
1
40
0.016000
41
0.016000
0
VERTEX
8
2
10
-0.100000
20
-2.700000
0
VERTEX
8
2
10
-0.300000
20
-2.700000
0
SEQEND
8
2
0
TEXT
8
0
10
-0.750000
20
-2.740000
40
0.080000
41
1.000000
1
CARRY
0
TEXT
8
0
10
-0.200000
20
-2.690000
40
0.080000
41
1.000000
1
10
0
TEXT
8
0
10
-0.908000
20
-1.877000
40
0.120000
41
0.666667
1
U2
0
TEXT
8
0
10
-0.708000
20
-2.498000
40
0.080000
41
1.000000
1
40110
0
POLYLINE
8
2
66
1
40
0.016000
41
0.016000
0
VERTEX
8
2
10
1.800000
20
-2.900000
0
VERTEX
8
2
10
2.400000
20
-2.900000
0
VERTEX
8
2
10
2.400000
20
-1.900000
0
VERTEX
8
2
10
1.800000
20
-1.900000
0
VERTEX
8
2
10
1.800000
20
-2.900000
0
SEQEND
8
2
0
POLYLINE
8
2
66
1
40
0.016000
41
0.016000
0
VERTEX
8
2
10
1.800000
20
-1.970000
0
VERTEX
8
2
10
1.830000
20
-2.000000
0
VERTEX
8
2
10
1.800000
20
-2.030000
0
VERTEX
8
2
10
1.800000
20
-1.970000
0
SEQEND
8
2
0
POLYLINE
8
2
66
1
40
0.016000
41
0.016000
0
VERTEX
8
2
10
1.600000
20
-2.000000
0
VERTEX
8
2
10
1.800000
20
-2.000000
0
SEQEND
8
2
0
TEXT
8
0
10
1.850000
20
-2.040000
40
0.080000
41
1.000000
1
CLKUP
0
TEXT
8
0
10
1.620000
20
-1.990000
40
0.080000
41
1.000000
1
9
0
POLYLINE
8
2
66
1
40
0.016000
41
0.016000
0
VERTEX
8
2
10
1.800000
20
-2.070000
0
VERTEX
8
2
10
1.830000
20
-2.100000
0
VERTEX
8
2
10
1.800000
20
-2.130000
0
VERTEX
8
2
10
1.800000
20
-2.070000
0
SEQEND
8
2
0
POLYLINE
8
2
66
1
40
0.016000
41
0.016000
0
VERTEX
8
2
10
1.600000
20
-2.100000
0
VERTEX
8
2
10
1.800000
20
-2.100000
0
SEQEND
8
2
0
TEXT
8
0
10
1.850000
20
-2.140000
40
0.080000
41
1.000000
1
CLKDN
0
TEXT
8
0
10
1.620000
20
-2.090000
40
0.080000
41
1.000000
1
7
0
POLYLINE
8
2
66
1
40
0.016000
41
0.016000
0
VERTEX
8
2
10
1.600000
20
-2.300000
0
VERTEX
8
2
10
1.800000
20
-2.300000
0
SEQEND
8
2
0
TEXT
8
0
10
1.850000
20
-2.340000
40
0.080000
41
1.000000
1
RESET
0
TEXT
8
0
10
1.620000
20
-2.290000
40
0.080000
41
1.000000
1
5
0
POLYLINE
8
2
66
1
40
0.016000
41
0.016000
0
VERTEX
8
2
10
1.600000
20
-2.500000
0
VERTEX
8
2
10
1.800000
20
-2.500000
0
SEQEND
8
2
0
TEXT
8
0
10
1.850000
20
-2.540000
40
0.080000
41
1.000000
1
TE
0
TEXT
8
0
10
1.620000
20
-2.490000
40
0.080000
41
1.000000
1
4
0
POLYLINE
8
2
66
1
40
0.016000
41
0.016000
0
VERTEX
8
2
10
1.600000
20
-2.600000
0
VERTEX
8
2
10
1.800000
20
-2.600000
0
SEQEND
8
2
0
TEXT
8
0
10
1.850000
20
-2.640000
40
0.080000
41
1.000000
1
LE
0
TEXT
8
0
10
1.620000
20
-2.590000
40
0.080000
41
1.000000
1
6
0
POLYLINE
8
2
66
1
40
0.016000
41
0.016000
0
VERTEX
8
2
10
2.600000
20
-2.000000
0
VERTEX
8
2
10
2.400000
20
-2.000000
0
SEQEND
8
2
0
TEXT
8
0
10
2.270000
20
-2.040000
40
0.080000
41
1.000000
1
A
0
TEXT
8
0
10
2.500000
20
-1.990000
40
0.080000
41
1.000000
1
1
0
POLYLINE
8
2
66
1
40
0.016000
41
0.016000
0
VERTEX
8
2
10
2.600000
20
-2.100000
0
VERTEX
8
2
10
2.400000
20
-2.100000
0
SEQEND
8
2
0
TEXT
8
0
10
2.270000
20
-2.140000
40
0.080000
41
1.000000
1
B
0
TEXT
8
0
10
2.500000
20
-2.090000
40
0.080000
41
1.000000
1
15
0
POLYLINE
8
2
66
1
40
0.016000
41
0.016000
0
VERTEX
8
2
10
2.600000
20
-2.200000
0
VERTEX
8
2
10
2.400000
20
-2.200000
0
SEQEND
8
2
0
TEXT
8
0
10
2.270000
20
-2.240000
40
0.080000
41
1.000000
1
C
0
TEXT
8
0
10
2.500000
20
-2.190000
40
0.080000
41
1.000000
1
14
0
POLYLINE
8
2
66
1
40
0.016000
41
0.016000
0
VERTEX
8
2
10
2.600000
20
-2.300000
0
VERTEX
8
2
10
2.400000
20
-2.300000
0
SEQEND
8
2
0
TEXT
8
0
10
2.270000
20
-2.340000
40
0.080000
41
1.000000
1
D
0
TEXT
8
0
10
2.500000
20
-2.290000
40
0.080000
41
1.000000
1
13
0
POLYLINE
8
2
66
1
40
0.016000
41
0.016000
0
VERTEX
8
2
10
2.600000
20
-2.400000
0
VERTEX
8
2
10
2.400000
20
-2.400000
0
SEQEND
8
2
0
TEXT
8
0
10
2.270000
20
-2.440000
40
0.080000
41
1.000000
1
E
0
TEXT
8
0
10
2.500000
20
-2.390000
40
0.080000
41
1.000000
1
12
0
POLYLINE
8
2
66
1
40
0.016000
41
0.016000
0
VERTEX
8
2
10
2.600000
20
-2.500000
0
VERTEX
8
2
10
2.400000
20
-2.500000
0
SEQEND
8
2
0
TEXT
8
0
10
2.270000
20
-2.540000
40
0.080000
41
1.000000
1
F
0
TEXT
8
0
10
2.500000
20
-2.490000
40
0.080000
41
1.000000
1
3
0
POLYLINE
8
2
66
1
40
0.016000
41
0.016000
0
VERTEX
8
2
10
2.600000
20
-2.600000
0
VERTEX
8
2
10
2.400000
20
-2.600000
0
SEQEND
8
2
0
TEXT
8
0
10
2.270000
20
-2.640000
40
0.080000
41
1.000000
1
G
0
TEXT
8
0
10
2.500000
20
-2.590000
40
0.080000
41
1.000000
1
2
0
POLYLINE
8
2
66
1
40
0.016000
41
0.016000
0
VERTEX
8
2
10
2.600000
20
-2.800000
0
VERTEX
8
2
10
2.400000
20
-2.800000
0
SEQEND
8
2
0
TEXT
8
0
10
1.870000
20
-2.840000
40
0.080000
41
1.000000
1
BORROW
0
TEXT
8
0
10
2.500000
20
-2.790000
40
0.080000
41
1.000000
1
11
0
POLYLINE
8
2
66
1
40
0.016000
41
0.016000
0
VERTEX
8
2
10
2.600000
20
-2.700000
0
VERTEX
8
2
10
2.400000
20
-2.700000
0
SEQEND
8
2
0
TEXT
8
0
10
1.950000
20
-2.740000
40
0.080000
41
1.000000
1
CARRY
0
TEXT
8
0
10
2.500000
20
-2.690000
40
0.080000
41
1.000000
1
10
0
TEXT
8
0
10
1.792000
20
-1.877000
40
0.120000
41
0.666667
1
U3
0
TEXT
8
0
10
1.992000
20
-2.598000
40
0.080000
41
1.000000
1
40110
0
POLYLINE
8
2
66
1
40
0.016000
41
0.016000
0
VERTEX
8
2
10
5.600000
20
-2.040000
0
VERTEX
8
2
10
5.900000
20
-2.040000
0
VERTEX
8
2
10
5.900000
20
-1.960000
0
VERTEX
8
2
10
5.600000
20
-1.960000
0
VERTEX
8
2
10
5.600000
20
-2.040000
0
SEQEND
8
2
0
POLYLINE
8
2
66
1
40
0.016000
41
0.016000
0
VERTEX
8
2
10
5.500000
20
-2.000000
0
VERTEX
8
2
10
5.600000
20
-2.000000
0
SEQEND
8
2
0
POLYLINE
8
2
66
1
40
0.016000
41
0.016000
0
VERTEX
8
2
10
6.000000
20
-2.000000
0
VERTEX
8
2
10
5.900000
20
-2.000000
0
SEQEND
8
2
0
TEXT
8
0
10
5.592000
20
-1.937000
40
0.120000
41
0.666667
1
R1
0
TEXT
8
0
10
5.592000
20
-2.138000
40
0.080000
41
1.000000
1
220R
0
POLYLINE
8
2
66
1
40
0.016000
41
0.016000
0
VERTEX
8
2
10
5.600000
20
-2.140000
0
VERTEX
8
2
10
5.900000
20
-2.140000
0
VERTEX
8
2
10
5.900000
20
-2.060000
0
VERTEX
8
2
10
5.600000
20
-2.060000
0
VERTEX
8
2
10
5.600000
20
-2.140000
0
SEQEND
8
2
0
POLYLINE
8
2
66
1
40
0.016000
41
0.016000
0
VERTEX
8
2
10
5.500000
20
-2.100000
0
VERTEX
8
2
10
5.600000
20
-2.100000
0
SEQEND
8
2
0
POLYLINE
8
2
66
1
40
0.016000
41
0.016000
0
VERTEX
8
2
10
6.000000
20
-2.100000
0
VERTEX
8
2
10
5.900000
20
-2.100000
0
SEQEND
8
2
0
TEXT
8
0
10
5.592000
20
-2.037000
40
0.120000
41
0.666667
1
R2
0
TEXT
8
0
10
5.592000
20
-2.238000
40
0.080000
41
1.000000
1
220R
0
POLYLINE
8
2
66
1
40
0.016000
41
0.016000
0
VERTEX
8
2
10
5.600000
20
-2.240000
0
VERTEX
8
2
10
5.900000
20
-2.240000
0
VERTEX
8
2
10
5.900000
20
-2.160000
0
VERTEX
8
2
10
5.600000
20
-2.160000
0
VERTEX
8
2
10
5.600000
20
-2.240000
0
SEQEND
8
2
0
POLYLINE
8
2
66
1
40
0.016000
41
0.016000
0
VERTEX
8
2
10
5.500000
20
-2.200000
0
VERTEX
8
2
10
5.600000
20
-2.200000
0
SEQEND
8
2
0
POLYLINE
8
2
66
1
40
0.016000
41
0.016000
0
VERTEX
8
2
10
6.000000
20
-2.200000
0
VERTEX
8
2
10
5.900000
20
-2.200000
0
SEQEND
8
2
0
TEXT
8
0
10
5.592000
20
-2.137000
40
0.120000
41
0.666667
1
R3
0
TEXT
8
0
10
5.592000
20
-2.338000
40
0.080000
41
1.000000
1
220R
0
POLYLINE
8
2
66
1
40
0.016000
41
0.016000
0
VERTEX
8
2
10
5.600000
20
-2.340000
0
VERTEX
8
2
10
5.900000
20
-2.340000
0
VERTEX
8
2
10
5.900000
20
-2.260000
0
VERTEX
8
2
10
5.600000
20
-2.260000
0
VERTEX
8
2
10
5.600000
20
-2.340000
0
SEQEND
8
2
0
POLYLINE
8
2
66
1
40
0.016000
41
0.016000
0
VERTEX
8
2
10
5.500000
20
-2.300000
0
VERTEX
8
2
10
5.600000
20
-2.300000
0
SEQEND
8
2
0
POLYLINE
8
2
66
1
40
0.016000
41
0.016000
0
VERTEX
8
2
10
6.000000
20
-2.300000
0
VERTEX
8
2
10
5.900000
20
-2.300000
0
SEQEND
8
2
0
TEXT
8
0
10
5.592000
20
-2.237000
40
0.120000
41
0.666667
1
R4
0
TEXT
8
0
10
5.592000
20
-2.438000
40
0.080000
41
1.000000
1
220R
0
POLYLINE
8
2
66
1
40
0.016000
41
0.016000
0
VERTEX
8
2
10
5.600000
20
-2.440000
0
VERTEX
8
2
10
5.900000
20
-2.440000
0
VERTEX
8
2
10
5.900000
20
-2.360000
0
VERTEX
8
2
10
5.600000
20
-2.360000
0
VERTEX
8
2
10
5.600000
20
-2.440000
0
SEQEND
8
2
0
POLYLINE
8
2
66
1
40
0.016000
41
0.016000
0
VERTEX
8
2
10
5.500000
20
-2.400000
0
VERTEX
8
2
10
5.600000
20
-2.400000
0
SEQEND
8
2
0
POLYLINE
8
2
66
1
40
0.016000
41
0.016000
0
VERTEX
8
2
10
6.000000
20
-2.400000
0
VERTEX
8
2
10
5.900000
20
-2.400000
0
SEQEND
8
2
0
TEXT
8
0
10
5.592000
20
-2.337000
40
0.120000
41
0.666667
1
R5
0
TEXT
8
0
10
5.592000
20
-2.538000
40
0.080000
41
1.000000
1
220R
0
POLYLINE
8
2
66
1
40
0.016000
41
0.016000
0
VERTEX
8
2
10
5.600000
20
-2.540000
0
VERTEX
8
2
10
5.900000
20
-2.540000
0
VERTEX
8
2
10
5.900000
20
-2.460000
0
VERTEX
8
2
10
5.600000
20
-2.460000
0
VERTEX
8
2
10
5.600000
20
-2.540000
0
SEQEND
8
2
0
POLYLINE
8
2
66
1
40
0.016000
41
0.016000
0
VERTEX
8
2
10
5.500000
20
-2.500000
0
VERTEX
8
2
10
5.600000
20
-2.500000
0
SEQEND
8
2
0
POLYLINE
8
2
66
1
40
0.016000
41
0.016000
0
VERTEX
8
2
10
6.000000
20
-2.500000
0
VERTEX
8
2
10
5.900000
20
-2.500000
0
SEQEND
8
2
0
TEXT
8
0
10
5.592000
20
-2.437000
40
0.120000
41
0.666667
1
R6
0
TEXT
8
0
10
5.592000
20
-2.638000
40
0.080000
41
1.000000
1
220R
0
POLYLINE
8
2
66
1
40
0.016000
41
0.016000
0
VERTEX
8
2
10
5.600000
20
-2.640000
0
VERTEX
8
2
10
5.900000
20
-2.640000
0
VERTEX
8
2
10
5.900000
20
-2.560000
0
VERTEX
8
2
10
5.600000
20
-2.560000
0
VERTEX
8
2
10
5.600000
20
-2.640000
0
SEQEND
8
2
0
POLYLINE
8
2
66
1
40
0.016000
41
0.016000
0
VERTEX
8
2
10
5.500000
20
-2.600000
0
VERTEX
8
2
10
5.600000
20
-2.600000
0
SEQEND
8
2
0
POLYLINE
8
2
66
1
40
0.016000
41
0.016000
0
VERTEX
8
2
10
6.000000
20
-2.600000
0
VERTEX
8
2
10
5.900000
20
-2.600000
0
SEQEND
8
2
0
TEXT
8
0
10
5.592000
20
-2.537000
40
0.120000
41
0.666667
1
R7
0
TEXT
8
0
10
5.692000
20
-2.738000
40
0.080000
41
1.000000
1
220R
0
POLYLINE
8
2
66
1
40
0.016000
41
0.016000
0
VERTEX
8
2
10
2.700000
20
-2.040000
0
VERTEX
8
2
10
3.000000
20
-2.040000
0
VERTEX
8
2
10
3.000000
20
-1.960000
0
VERTEX
8
2
10
2.700000
20
-1.960000
0
VERTEX
8
2
10
2.700000
20
-2.040000
0
SEQEND
8
2
0
POLYLINE
8
2
66
1
40
0.016000
41
0.016000
0
VERTEX
8
2
10
2.600000
20
-2.000000
0
VERTEX
8
2
10
2.700000
20
-2.000000
0
SEQEND
8
2
0
POLYLINE
8
2
66
1
40
0.016000
41
0.016000
0
VERTEX
8
2
10
3.100000
20
-2.000000
0
VERTEX
8
2
10
3.000000
20
-2.000000
0
SEQEND
8
2
0
TEXT
8
0
10
2.692000
20
-1.937000
40
0.120000
41
0.666667
1
R9
0
TEXT
8
0
10
2.692000
20
-2.138000
40
0.080000
41
1.000000
1
220R
0
POLYLINE
8
2
66
1
40
0.016000
41
0.016000
0
VERTEX
8
2
10
2.700000
20
-2.140000
0
VERTEX
8
2
10
3.000000
20
-2.140000
0
VERTEX
8
2
10
3.000000
20
-2.060000
0
VERTEX
8
2
10
2.700000
20
-2.060000
0
VERTEX
8
2
10
2.700000
20
-2.140000
0
SEQEND
8
2
0
POLYLINE
8
2
66
1
40
0.016000
41
0.016000
0
VERTEX
8
2
10
2.600000
20
-2.100000
0
VERTEX
8
2
10
2.700000
20
-2.100000
0
SEQEND
8
2
0
POLYLINE
8
2
66
1
40
0.016000
41
0.016000
0
VERTEX
8
2
10
3.100000
20
-2.100000
0
VERTEX
8
2
10
3.000000
20
-2.100000
0
SEQEND
8
2
0
TEXT
8
0
10
2.692000
20
-2.037000
40
0.120000
41
0.666667
1
R10
0
TEXT
8
0
10
2.692000
20
-2.238000
40
0.080000
41
1.000000
1
220R
0
POLYLINE
8
2
66
1
40
0.016000
41
0.016000
0
VERTEX
8
2
10
2.700000
20
-2.240000
0
VERTEX
8
2
10
3.000000
20
-2.240000
0
VERTEX
8
2
10
3.000000
20
-2.160000
0
VERTEX
8
2
10
2.700000
20
-2.160000
0
VERTEX
8
2
10
2.700000
20
-2.240000
0
SEQEND
8
2
0
POLYLINE
8
2
66
1
40
0.016000
41
0.016000
0
VERTEX
8
2
10
2.600000
20
-2.200000
0
VERTEX
8
2
10
2.700000
20
-2.200000
0
SEQEND
8
2
0
POLYLINE
8
2
66
1
40
0.016000
41
0.016000
0
VERTEX
8
2
10
3.100000
20
-2.200000
0
VERTEX
8
2
10
3.000000
20
-2.200000
0
SEQEND
8
2
0
TEXT
8
0
10
2.692000
20
-2.137000
40
0.120000
41
0.666667
1
R11
0
TEXT
8
0
10
2.692000
20
-2.338000
40
0.080000
41
1.000000
1
220R
0
POLYLINE
8
2
66
1
40
0.016000
41
0.016000
0
VERTEX
8
2
10
2.700000
20
-2.340000
0
VERTEX
8
2
10
3.000000
20
-2.340000
0
VERTEX
8
2
10
3.000000
20
-2.260000
0
VERTEX
8
2
10
2.700000
20
-2.260000
0
VERTEX
8
2
10
2.700000
20
-2.340000
0
SEQEND
8
2
0
POLYLINE
8
2
66
1
40
0.016000
41
0.016000
0
VERTEX
8
2
10
2.600000
20
-2.300000
0
VERTEX
8
2
10
2.700000
20
-2.300000
0
SEQEND
8
2
0
POLYLINE
8
2
66
1
40
0.016000
41
0.016000
0
VERTEX
8
2
10
3.100000
20
-2.300000
0
VERTEX
8
2
10
3.000000
20
-2.300000
0
SEQEND
8
2
0
TEXT
8
0
10
2.692000
20
-2.237000
40
0.120000
41
0.666667
1
R12
0
TEXT
8
0
10
2.692000
20
-2.438000
40
0.080000
41
1.000000
1
220R
0
POLYLINE
8
2
66
1
40
0.016000
41
0.016000
0
VERTEX
8
2
10
2.700000
20
-2.440000
0
VERTEX
8
2
10
3.000000
20
-2.440000
0
VERTEX
8
2
10
3.000000
20
-2.360000
0
VERTEX
8
2
10
2.700000
20
-2.360000
0
VERTEX
8
2
10
2.700000
20
-2.440000
0
SEQEND
8
2
0
POLYLINE
8
2
66
1
40
0.016000
41
0.016000
0
VERTEX
8
2
10
2.600000
20
-2.400000
0
VERTEX
8
2
10
2.700000
20
-2.400000
0
SEQEND
8
2
0
POLYLINE
8
2
66
1
40
0.016000
41
0.016000
0
VERTEX
8
2
10
3.100000
20
-2.400000
0
VERTEX
8
2
10
3.000000
20
-2.400000
0
SEQEND
8
2
0
TEXT
8
0
10
2.692000
20
-2.337000
40
0.120000
41
0.666667
1
R13
0
TEXT
8
0
10
2.692000
20
-2.538000
40
0.080000
41
1.000000
1
220R
0
POLYLINE
8
2
66
1
40
0.016000
41
0.016000
0
VERTEX
8
2
10
2.700000
20
-2.540000
0
VERTEX
8
2
10
3.000000
20
-2.540000
0
VERTEX
8
2
10
3.000000
20
-2.460000
0
VERTEX
8
2
10
2.700000
20
-2.460000
0
VERTEX
8
2
10
2.700000
20
-2.540000
0
SEQEND
8
2
0
POLYLINE
8
2
66
1
40
0.016000
41
0.016000
0
VERTEX
8
2
10
2.600000
20
-2.500000
0
VERTEX
8
2
10
2.700000
20
-2.500000
0
SEQEND
8
2
0
POLYLINE
8
2
66
1
40
0.016000
41
0.016000
0
VERTEX
8
2
10
3.100000
20
-2.500000
0
VERTEX
8
2
10
3.000000
20
-2.500000
0
SEQEND
8
2
0
TEXT
8
0
10
2.692000
20
-2.437000
40
0.120000
41
0.666667
1
R14
0
TEXT
8
0
10
2.692000
20
-2.638000
40
0.080000
41
1.000000
1
220R
0
POLYLINE
8
2
66
1
40
0.016000
41
0.016000
0
VERTEX
8
2
10
2.700000
20
-2.640000
0
VERTEX
8
2
10
3.000000
20
-2.640000
0
VERTEX
8
2
10
3.000000
20
-2.560000
0
VERTEX
8
2
10
2.700000
20
-2.560000
0
VERTEX
8
2
10
2.700000
20
-2.640000
0
SEQEND
8
2
0
POLYLINE
8
2
66
1
40
0.016000
41
0.016000
0
VERTEX
8
2
10
2.600000
20
-2.600000
0
VERTEX
8
2
10
2.700000
20
-2.600000
0
SEQEND
8
2
0
POLYLINE
8
2
66
1
40
0.016000
41
0.016000
0
VERTEX
8
2
10
3.100000
20
-2.600000
0
VERTEX
8
2
10
3.000000
20
-2.600000
0
SEQEND
8
2
0
TEXT
8
0
10
2.692000
20
-2.537000
40
0.120000
41
0.666667
1
R15
0
TEXT
8
0
10
2.792000
20
-2.738000
40
0.080000
41
1.000000
1
220R
0
POLYLINE
8
2
66
1
40
0.016000
41
0.016000
0
VERTEX
8
2
10
0.000000
20
-2.040000
0
VERTEX
8
2
10
0.300000
20
-2.040000
0
VERTEX
8
2
10
0.300000
20
-1.960000
0
VERTEX
8
2
10
0.000000
20
-1.960000
0
VERTEX
8
2
10
0.000000
20
-2.040000
0
SEQEND
8
2
0
POLYLINE
8
2
66
1
40
0.016000
41
0.016000
0
VERTEX
8
2
10
-0.100000
20
-2.000000
0
VERTEX
8
2
10
0.000000
20
-2.000000
0
SEQEND
8
2
0
POLYLINE
8
2
66
1
40
0.016000
41
0.016000
0
VERTEX
8
2
10
0.400000
20
-2.000000
0
VERTEX
8
2
10
0.300000
20
-2.000000
0
SEQEND
8
2
0
TEXT
8
0
10
-0.008000
20
-1.937000
40
0.120000
41
0.666667
1
R17
0
TEXT
8
0
10
-0.008000
20
-2.138000
40
0.080000
41
1.000000
1
220R
0
POLYLINE
8
2
66
1
40
0.016000
41
0.016000
0
VERTEX
8
2
10
0.000000
20
-2.140000
0
VERTEX
8
2
10
0.300000
20
-2.140000
0
VERTEX
8
2
10
0.300000
20
-2.060000
0
VERTEX
8
2
10
0.000000
20
-2.060000
0
VERTEX
8
2
10
0.000000
20
-2.140000
0
SEQEND
8
2
0
POLYLINE
8
2
66
1
40
0.016000
41
0.016000
0
VERTEX
8
2
10
-0.100000
20
-2.100000
0
VERTEX
8
2
10
0.000000
20
-2.100000
0
SEQEND
8
2
0
POLYLINE
8
2
66
1
40
0.016000
41
0.016000
0
VERTEX
8
2
10
0.400000
20
-2.100000
0
VERTEX
8
2
10
0.300000
20
-2.100000
0
SEQEND
8
2
0
TEXT
8
0
10
-0.008000
20
-2.037000
40
0.120000
41
0.666667
1
R18
0
TEXT
8
0
10
-0.008000
20
-2.238000
40
0.080000
41
1.000000
1
220R
0
POLYLINE
8
2
66
1
40
0.016000
41
0.016000
0
VERTEX
8
2
10
0.000000
20
-2.240000
0
VERTEX
8
2
10
0.300000
20
-2.240000
0
VERTEX
8
2
10
0.300000
20
-2.160000
0
VERTEX
8
2
10
0.000000
20
-2.160000
0
VERTEX
8
2
10
0.000000
20
-2.240000
0
SEQEND
8
2
0
POLYLINE
8
2
66
1
40
0.016000
41
0.016000
0
VERTEX
8
2
10
-0.100000
20
-2.200000
0
VERTEX
8
2
10
0.000000
20
-2.200000
0
SEQEND
8
2
0
POLYLINE
8
2
66
1
40
0.016000
41
0.016000
0
VERTEX
8
2
10
0.400000
20
-2.200000
0
VERTEX
8
2
10
0.300000
20
-2.200000
0
SEQEND
8
2
0
TEXT
8
0
10
-0.008000
20
-2.137000
40
0.120000
41
0.666667
1
R19
0
TEXT
8
0
10
-0.008000
20
-2.338000
40
0.080000
41
1.000000
1
220R
0
POLYLINE
8
2
66
1
40
0.016000
41
0.016000
0
VERTEX
8
2
10
0.000000
20
-2.340000
0
VERTEX
8
2
10
0.300000
20
-2.340000
0
VERTEX
8
2
10
0.300000
20
-2.260000
0
VERTEX
8
2
10
0.000000
20
-2.260000
0
VERTEX
8
2
10
0.000000
20
-2.340000
0
SEQEND
8
2
0
POLYLINE
8
2
66
1
40
0.016000
41
0.016000
0
VERTEX
8
2
10
-0.100000
20
-2.300000
0
VERTEX
8
2
10
0.000000
20
-2.300000
0
SEQEND
8
2
0
POLYLINE
8
2
66
1
40
0.016000
41
0.016000
0
VERTEX
8
2
10
0.400000
20
-2.300000
0
VERTEX
8
2
10
0.300000
20
-2.300000
0
SEQEND
8
2
0
TEXT
8
0
10
-0.008000
20
-2.237000
40
0.120000
41
0.666667
1
R20
0
TEXT
8
0
10
-0.008000
20
-2.438000
40
0.080000
41
1.000000
1
220R
0
POLYLINE
8
2
66
1
40
0.016000
41
0.016000
0
VERTEX
8
2
10
0.000000
20
-2.440000
0
VERTEX
8
2
10
0.300000
20
-2.440000
0
VERTEX
8
2
10
0.300000
20
-2.360000
0
VERTEX
8
2
10
0.000000
20
-2.360000
0
VERTEX
8
2
10
0.000000
20
-2.440000
0
SEQEND
8
2
0
POLYLINE
8
2
66
1
40
0.016000
41
0.016000
0
VERTEX
8
2
10
-0.100000
20
-2.400000
0
VERTEX
8
2
10
0.000000
20
-2.400000
0
SEQEND
8
2
0
POLYLINE
8
2
66
1
40
0.016000
41
0.016000
0
VERTEX
8
2
10
0.400000
20
-2.400000
0
VERTEX
8
2
10
0.300000
20
-2.400000
0
SEQEND
8
2
0
TEXT
8
0
10
-0.008000
20
-2.337000
40
0.120000
41
0.666667
1
R21
0
TEXT
8
0
10
-0.008000
20
-2.538000
40
0.080000
41
1.000000
1
220R
0
POLYLINE
8
2
66
1
40
0.016000
41
0.016000
0
VERTEX
8
2
10
0.000000
20
-2.540000
0
VERTEX
8
2
10
0.300000
20
-2.540000
0
VERTEX
8
2
10
0.300000
20
-2.460000
0
VERTEX
8
2
10
0.000000
20
-2.460000
0
VERTEX
8
2
10
0.000000
20
-2.540000
0
SEQEND
8
2
0
POLYLINE
8
2
66
1
40
0.016000
41
0.016000
0
VERTEX
8
2
10
-0.100000
20
-2.500000
0
VERTEX
8
2
10
0.000000
20
-2.500000
0
SEQEND
8
2
0
POLYLINE
8
2
66
1
40
0.016000
41
0.016000
0
VERTEX
8
2
10
0.400000
20
-2.500000
0
VERTEX
8
2
10
0.300000
20
-2.500000
0
SEQEND
8
2
0
TEXT
8
0
10
-0.008000
20
-2.437000
40
0.120000
41
0.666667
1
R22
0
TEXT
8
0
10
-0.008000
20
-2.638000
40
0.080000
41
1.000000
1
220R
0
POLYLINE
8
2
66
1
40
0.016000
41
0.016000
0
VERTEX
8
2
10
0.000000
20
-2.640000
0
VERTEX
8
2
10
0.300000
20
-2.640000
0
VERTEX
8
2
10
0.300000
20
-2.560000
0
VERTEX
8
2
10
0.000000
20
-2.560000
0
VERTEX
8
2
10
0.000000
20
-2.640000
0
SEQEND
8
2
0
POLYLINE
8
2
66
1
40
0.016000
41
0.016000
0
VERTEX
8
2
10
-0.100000
20
-2.600000
0
VERTEX
8
2
10
0.000000
20
-2.600000
0
SEQEND
8
2
0
POLYLINE
8
2
66
1
40
0.016000
41
0.016000
0
VERTEX
8
2
10
0.400000
20
-2.600000
0
VERTEX
8
2
10
0.300000
20
-2.600000
0
SEQEND
8
2
0
TEXT
8
0
10
-0.008000
20
-2.537000
40
0.120000
41
0.666667
1
R23
0
TEXT
8
0
10
0.092000
20
-2.738000
40
0.080000
41
1.000000
1
220R
0
POLYLINE
8
2
66
1
40
0.016000
41
0.016000
0
VERTEX
8
2
10
-2.700000
20
-2.040000
0
VERTEX
8
2
10
-2.400000
20
-2.040000
0
VERTEX
8
2
10
-2.400000
20
-1.960000
0
VERTEX
8
2
10
-2.700000
20
-1.960000
0
VERTEX
8
2
10
-2.700000
20
-2.040000
0
SEQEND
8
2
0
POLYLINE
8
2
66
1
40
0.016000
41
0.016000
0
VERTEX
8
2
10
-2.800000
20
-2.000000
0
VERTEX
8
2
10
-2.700000
20
-2.000000
0
SEQEND
8
2
0
POLYLINE
8
2
66
1
40
0.016000
41
0.016000
0
VERTEX
8
2
10
-2.300000
20
-2.000000
0
VERTEX
8
2
10
-2.400000
20
-2.000000
0
SEQEND
8
2
0
TEXT
8
0
10
-2.708000
20
-1.937000
40
0.120000
41
0.666667
1
R25
0
TEXT
8
0
10
-2.708000
20
-2.138000
40
0.080000
41
1.000000
1
220R
0
POLYLINE
8
2
66
1
40
0.016000
41
0.016000
0
VERTEX
8
2
10
-2.700000
20
-2.140000
0
VERTEX
8
2
10
-2.400000
20
-2.140000
0
VERTEX
8
2
10
-2.400000
20
-2.060000
0
VERTEX
8
2
10
-2.700000
20
-2.060000
0
VERTEX
8
2
10
-2.700000
20
-2.140000
0
SEQEND
8
2
0
POLYLINE
8
2
66
1
40
0.016000
41
0.016000
0
VERTEX
8
2
10
-2.800000
20
-2.100000
0
VERTEX
8
2
10
-2.700000
20
-2.100000
0
SEQEND
8
2
0
POLYLINE
8
2
66
1
40
0.016000
41
0.016000
0
VERTEX
8
2
10
-2.300000
20
-2.100000
0
VERTEX
8
2
10
-2.400000
20
-2.100000
0
SEQEND
8
2
0
TEXT
8
0
10
-2.708000
20
-2.037000
40
0.120000
41
0.666667
1
R26
0
TEXT
8
0
10
-2.708000
20
-2.238000
40
0.080000
41
1.000000
1
220R
0
POLYLINE
8
2
66
1
40
0.016000
41
0.016000
0
VERTEX
8
2
10
-2.700000
20
-2.240000
0
VERTEX
8
2
10
-2.400000
20
-2.240000
0
VERTEX
8
2
10
-2.400000
20
-2.160000
0
VERTEX
8
2
10
-2.700000
20
-2.160000
0
VERTEX
8
2
10
-2.700000
20
-2.240000
0
SEQEND
8
2
0
POLYLINE
8
2
66
1
40
0.016000
41
0.016000
0
VERTEX
8
2
10
-2.800000
20
-2.200000
0
VERTEX
8
2
10
-2.700000
20
-2.200000
0
SEQEND
8
2
0
POLYLINE
8
2
66
1
40
0.016000
41
0.016000
0
VERTEX
8
2
10
-2.300000
20
-2.200000
0
VERTEX
8
2
10
-2.400000
20
-2.200000
0
SEQEND
8
2
0
TEXT
8
0
10
-2.708000
20
-2.137000
40
0.120000
41
0.666667
1
R27
0
TEXT
8
0
10
-2.708000
20
-2.338000
40
0.080000
41
1.000000
1
220R
0
POLYLINE
8
2
66
1
40
0.016000
41
0.016000
0
VERTEX
8
2
10
-2.700000
20
-2.340000
0
VERTEX
8
2
10
-2.400000
20
-2.340000
0
VERTEX
8
2
10
-2.400000
20
-2.260000
0
VERTEX
8
2
10
-2.700000
20
-2.260000
0
VERTEX
8
2
10
-2.700000
20
-2.340000
0
SEQEND
8
2
0
POLYLINE
8
2
66
1
40
0.016000
41
0.016000
0
VERTEX
8
2
10
-2.800000
20
-2.300000
0
VERTEX
8
2
10
-2.700000
20
-2.300000
0
SEQEND
8
2
0
POLYLINE
8
2
66
1
40
0.016000
41
0.016000
0
VERTEX
8
2
10
-2.300000
20
-2.300000
0
VERTEX
8
2
10
-2.400000
20
-2.300000
0
SEQEND
8
2
0
TEXT
8
0
10
-2.708000
20
-2.237000
40
0.120000
41
0.666667
1
R28
0
TEXT
8
0
10
-2.708000
20
-2.438000
40
0.080000
41
1.000000
1
220R
0
POLYLINE
8
2
66
1
40
0.016000
41
0.016000
0
VERTEX
8
2
10
-2.700000
20
-2.440000
0
VERTEX
8
2
10
-2.400000
20
-2.440000
0
VERTEX
8
2
10
-2.400000
20
-2.360000
0
VERTEX
8
2
10
-2.700000
20
-2.360000
0
VERTEX
8
2
10
-2.700000
20
-2.440000
0
SEQEND
8
2
0
POLYLINE
8
2
66
1
40
0.016000
41
0.016000
0
VERTEX
8
2
10
-2.800000
20
-2.400000
0
VERTEX
8
2
10
-2.700000
20
-2.400000
0
SEQEND
8
2
0
POLYLINE
8
2
66
1
40
0.016000
41
0.016000
0
VERTEX
8
2
10
-2.300000
20
-2.400000
0
VERTEX
8
2
10
-2.400000
20
-2.400000
0
SEQEND
8
2
0
TEXT
8
0
10
-2.708000
20
-2.337000
40
0.120000
41
0.666667
1
R29
0
TEXT
8
0
10
-2.708000
20
-2.538000
40
0.080000
41
1.000000
1
220R
0
POLYLINE
8
2
66
1
40
0.016000
41
0.016000
0
VERTEX
8
2
10
-2.700000
20
-2.540000
0
VERTEX
8
2
10
-2.400000
20
-2.540000
0
VERTEX
8
2
10
-2.400000
20
-2.460000
0
VERTEX
8
2
10
-2.700000
20
-2.460000
0
VERTEX
8
2
10
-2.700000
20
-2.540000
0
SEQEND
8
2
0
POLYLINE
8
2
66
1
40
0.016000
41
0.016000
0
VERTEX
8
2
10
-2.800000
20
-2.500000
0
VERTEX
8
2
10
-2.700000
20
-2.500000
0
SEQEND
8
2
0
POLYLINE
8
2
66
1
40
0.016000
41
0.016000
0
VERTEX
8
2
10
-2.300000
20
-2.500000
0
VERTEX
8
2
10
-2.400000
20
-2.500000
0
SEQEND
8
2
0
TEXT
8
0
10
-2.708000
20
-2.437000
40
0.120000
41
0.666667
1
R30
0
TEXT
8
0
10
-2.708000
20
-2.638000
40
0.080000
41
1.000000
1
220R
0
POLYLINE
8
2
66
1
40
0.016000
41
0.016000
0
VERTEX
8
2
10
-2.700000
20
-2.640000
0
VERTEX
8
2
10
-2.400000
20
-2.640000
0
VERTEX
8
2
10
-2.400000
20
-2.560000
0
VERTEX
8
2
10
-2.700000
20
-2.560000
0
VERTEX
8
2
10
-2.700000
20
-2.640000
0
SEQEND
8
2
0
POLYLINE
8
2
66
1
40
0.016000
41
0.016000
0
VERTEX
8
2
10
-2.800000
20
-2.600000
0
VERTEX
8
2
10
-2.700000
20
-2.600000
0
SEQEND
8
2
0
POLYLINE
8
2
66
1
40
0.016000
41
0.016000
0
VERTEX
8
2
10
-2.300000
20
-2.600000
0
VERTEX
8
2
10
-2.400000
20
-2.600000
0
SEQEND
8
2
0
TEXT
8
0
10
-2.708000
20
-2.537000
40
0.120000
41
0.666667
1
R31
0
TEXT
8
0
10
-2.608000
20
-2.738000
40
0.080000
41
1.000000
1
220R
0
CIRCLE
8
1
10
1.800000
20
-4.300000
40
0.020000
0
POLYLINE
8
2
66
1
40
0.016000
41
0.016000
0
VERTEX
8
2
10
-4.740000
20
-3.000000
0
VERTEX
8
2
10
-4.660000
20
-3.000000
0
VERTEX
8
2
10
-4.660000
20
-2.700000
0
VERTEX
8
2
10
-4.740000
20
-2.700000
0
VERTEX
8
2
10
-4.740000
20
-3.000000
0
SEQEND
8
2
0
POLYLINE
8
2
66
1
40
0.016000
41
0.016000
0
VERTEX
8
2
10
-4.700000
20
-3.100000
0
VERTEX
8
2
10
-4.700000
20
-3.000000
0
SEQEND
8
2
0
POLYLINE
8
2
66
1
40
0.016000
41
0.016000
0
VERTEX
8
2
10
-4.700000
20
-2.600000
0
VERTEX
8
2
10
-4.700000
20
-2.700000
0
SEQEND
8
2
0
TEXT
8
0
10
-4.602000
20
-2.827000
40
0.120000
41
0.666667
1
R8
0
TEXT
8
0
10
-4.602000
20
-2.932000
40
0.080000
41
1.000000
1
10k
0
POLYLINE
8
2
66
1
40
0.016000
41
0.016000
0
VERTEX
8
2
10
-2.900000
20
1.830000
0
VERTEX
8
2
10
-2.700000
20
1.830000
0
VERTEX
8
2
10
-2.700000
20
1.880000
0
VERTEX
8
2
10
-2.900000
20
1.880000
0
VERTEX
8
2
10
-2.900000
20
1.830000
0
SEQEND
8
2
0
POLYLINE
8
2
66
1
40
0.016000
41
0.016000
0
VERTEX
8
2
10
-2.900000
20
1.720000
0
VERTEX
8
2
10
-2.700000
20
1.720000
0
VERTEX
8
2
10
-2.700000
20
1.770000
0
VERTEX
8
2
10
-2.900000
20
1.770000
0
VERTEX
8
2
10
-2.900000
20
1.720000
0
SEQEND
8
2
0
POLYLINE
8
2
66
1
40
0.016000
41
0.016000
0
VERTEX
8
2
10
-2.800000
20
1.720000
0
VERTEX
8
2
10
-2.800000
20
1.700000
0
SEQEND
8
2
0
POLYLINE
8
2
66
1
40
0.016000
41
0.016000
0
VERTEX
8
2
10
-2.800000
20
1.880000
0
VERTEX
8
2
10
-2.800000
20
1.900000
0
SEQEND
8
2
0
POLYLINE
8
2
66
1
40
0.016000
41
0.016000
0
VERTEX
8
2
10
-2.750000
20
1.770000
0
VERTEX
8
2
10
-2.700000
20
1.720000
0
SEQEND
8
2
0
POLYLINE
8
2
66
1
40
0.016000
41
0.016000
0
VERTEX
8
2
10
-2.800000
20
1.770000
0
VERTEX
8
2
10
-2.750000
20
1.720000
0
SEQEND
8
2
0
POLYLINE
8
2
66
1
40
0.016000
41
0.016000
0
VERTEX
8
2
10
-2.850000
20
1.770000
0
VERTEX
8
2
10
-2.800000
20
1.720000
0
SEQEND
8
2
0
POLYLINE
8
2
66
1
40
0.016000
41
0.016000
0
VERTEX
8
2
10
-2.900000
20
1.770000
0
VERTEX
8
2
10
-2.850000
20
1.720000
0
SEQEND
8
2
0
POLYLINE
8
2
66
1
40
0.016000
41
0.016000
0
VERTEX
8
2
10
-2.800000
20
2.000000
0
VERTEX
8
2
10
-2.800000
20
1.900000
0
SEQEND
8
2
0
POLYLINE
8
2
66
1
40
0.016000
41
0.016000
0
VERTEX
8
2
10
-2.800000
20
1.600000
0
VERTEX
8
2
10
-2.800000
20
1.700000
0
SEQEND
8
2
0
TEXT
8
0
10
-2.642000
20
1.773000
40
0.120000
41
0.666667
1
C1
0
TEXT
8
0
10
-2.642000
20
1.668000
40
0.080000
41
1.000000
1
4.7uF
0
CIRCLE
8
1
10
-2.800000
20
2.000000
40
0.020000
0
CIRCLE
8
1
10
-3.300000
20
1.600000
40
0.020000
0
POLYLINE
8
2
66
1
40
0.016000
41
0.016000
0
VERTEX
8
2
10
-3.200000
20
3.360000
0
VERTEX
8
2
10
-2.900000
20
3.360000
0
VERTEX
8
2
10
-2.900000
20
3.440000
0
VERTEX
8
2
10
-3.200000
20
3.440000
0
VERTEX
8
2
10
-3.200000
20
3.360000
0
SEQEND
8
2
0
POLYLINE
8
2
66
1
40
0.016000
41
0.016000
0
VERTEX
8
2
10
-3.300000
20
3.400000
0
VERTEX
8
2
10
-3.200000
20
3.400000
0
SEQEND
8
2
0
POLYLINE
8
2
66
1
40
0.016000
41
0.016000
0
VERTEX
8
2
10
-2.800000
20
3.400000
0
VERTEX
8
2
10
-2.900000
20
3.400000
0
SEQEND
8
2
0
TEXT
8
0
10
-3.208000
20
3.463000
40
0.120000
41
0.666667
1
R16
0
TEXT
8
0
10
-3.208000
20
3.262000
40
0.080000
41
1.000000
1
10k
0
POLYLINE
8
2
66
1
40
0.016000
41
0.016000
0
VERTEX
8
2
10
-2.640000
20
2.500000
0
VERTEX
8
2
10
-2.560000
20
2.500000
0
VERTEX
8
2
10
-2.560000
20
2.800000
0
VERTEX
8
2
10
-2.640000
20
2.800000
0
VERTEX
8
2
10
-2.640000
20
2.500000
0
SEQEND
8
2
0
POLYLINE
8
2
66
1
40
0.016000
41
0.016000
0
VERTEX
8
2
10
-2.600000
20
2.400000
0
VERTEX
8
2
10
-2.600000
20
2.500000
0
SEQEND
8
2
0
POLYLINE
8
2
66
1
40
0.016000
41
0.016000
0
VERTEX
8
2
10
-2.600000
20
2.900000
0
VERTEX
8
2
10
-2.600000
20
2.800000
0
SEQEND
8
2
0
TEXT
8
0
10
-2.502000
20
2.673000
40
0.120000
41
0.666667
1
R24
0
TEXT
8
0
10
-2.502000
20
2.568000
40
0.080000
41
1.000000
1
10k
0
CIRCLE
8
1
10
-2.600000
20
2.900000
40
0.020000
0
POLYLINE
8
2
66
1
40
0.016000
41
0.016000
0
VERTEX
8
2
10
-4.030000
20
2.600000
0
VERTEX
8
2
10
-4.030000
20
2.800000
0
SEQEND
8
2
0
POLYLINE
8
2
66
1
40
0.016000
41
0.016000
0
VERTEX
8
2
10
-3.970000
20
2.600000
0
VERTEX
8
2
10
-3.970000
20
2.800000
0
SEQEND
8
2
0
POLYLINE
8
2
66
1
40
0.016000
41
0.016000
0
VERTEX
8
2
10
-3.970000
20
2.700000
0
VERTEX
8
2
10
-3.900000
20
2.700000
0
SEQEND
8
2
0
POLYLINE
8
2
66
1
40
0.016000
41
0.016000
0
VERTEX
8
2
10
-4.030000
20
2.700000
0
VERTEX
8
2
10
-4.100000
20
2.700000
0
SEQEND
8
2
0
POLYLINE
8
2
66
1
40
0.016000
41
0.016000
0
VERTEX
8
2
10
-4.200000
20
2.700000
0
VERTEX
8
2
10
-4.100000
20
2.700000
0
SEQEND
8
2
0
POLYLINE
8
2
66
1
40
0.016000
41
0.016000
0
VERTEX
8
2
10
-3.800000
20
2.700000
0
VERTEX
8
2
10
-3.900000
20
2.700000
0
SEQEND
8
2
0
TEXT
8
0
10
-4.108000
20
2.823000
40
0.120000
41
0.666667
1
C2
0
TEXT
8
0
10
-4.108000
20
2.502000
40
0.080000
41
1.000000
1
10nF
0
POLYLINE
8
2
66
1
40
0.016000
41
0.016000
0
VERTEX
8
2
10
-4.200000
20
3.060000
0
VERTEX
8
2
10
-3.900000
20
3.060000
0
VERTEX
8
2
10
-3.900000
20
3.140000
0
VERTEX
8
2
10
-4.200000
20
3.140000
0
VERTEX
8
2
10
-4.200000
20
3.060000
0
SEQEND
8
2
0
POLYLINE
8
2
66
1
40
0.016000
41
0.016000
0
VERTEX
8
2
10
-3.800000
20
3.100000
0
VERTEX
8
2
10
-3.900000
20
3.100000
0
SEQEND
8
2
0
POLYLINE
8
2
66
1
40
0.016000
41
0.016000
0
VERTEX
8
2
10
-4.300000
20
3.100000
0
VERTEX
8
2
10
-4.200000
20
3.100000
0
SEQEND
8
2
0
TEXT
8
0
10
-4.208000
20
3.163000
40
0.120000
41
0.666667
1
R32
0
TEXT
8
0
10
-4.208000
20
2.962000
40
0.080000
41
1.000000
1
10k
0
CIRCLE
8
1
10
-4.300000
20
2.700000
40
0.020000
0
CIRCLE
8
1
10
-3.300000
20
3.800000
40
0.020000
0
POLYLINE
8
2
66
1
40
0.016000
41
0.016000
0
VERTEX
8
2
10
-3.600000
20
2.200000
0
VERTEX
8
2
10
-3.000000
20
2.200000
0
VERTEX
8
2
10
-3.000000
20
3.200000
0
VERTEX
8
2
10
-3.600000
20
3.200000
0
VERTEX
8
2
10
-3.600000
20
2.200000
0
SEQEND
8
2
0
CIRCLE
8
2
10
-3.630000
20
3.100000
40
0.030000
0
POLYLINE
8
2
66
1
40
0.016000
41
0.016000
0
VERTEX
8
2
10
-3.800000
20
3.100000
0
VERTEX
8
2
10
-3.660000
20
3.100000
0
SEQEND
8
2
0
TEXT
8
0
10
-3.550000
20
3.060000
40
0.080000
41
1.000000
1
R
0
TEXT
8
0
10
-3.780000
20
3.110000
40
0.080000
41
1.000000
1
4
0
POLYLINE
8
2
66
1
40
0.016000
41
0.016000
0
VERTEX
8
2
10
-2.800000
20
2.900000
0
VERTEX
8
2
10
-3.000000
20
2.900000
0
SEQEND
8
2
0
TEXT
8
0
10
-3.210000
20
2.860000
40
0.080000
41
1.000000
1
DC
0
TEXT
8
0
10
-2.900000
20
2.910000
40
0.080000
41
1.000000
1
1
0
POLYLINE
8
2
66
1
40
0.016000
41
0.016000
0
VERTEX
8
2
10
-2.800000
20
3.100000
0
VERTEX
8
2
10
-3.000000
20
3.100000
0
SEQEND
8
2
0
TEXT
8
0
10
-3.130000
20
3.060000
40
0.080000
41
1.000000
1
Q
0
TEXT
8
0
10
-2.900000
20
3.110000
40
0.080000
41
1.000000
1
5
0
POLYLINE
8
2
66
1
40
0.016000
41
0.016000
0
VERTEX
8
2
10
-3.300000
20
2.000000
0
VERTEX
8
2
10
-3.300000
20
2.200000
0
SEQEND
8
2
0
TEXT
8
0
10
-3.260000
20
2.250000
40
0.080000
41
1.000000
50
90.000000
1
GND
0
TEXT
8
0
10
-3.310000
20
2.020000
40
0.080000
41
1.000000
50
90.000000
1
7
0
POLYLINE
8
2
66
1
40
0.016000
41
0.016000
0
VERTEX
8
2
10
-3.300000
20
3.400000
0
VERTEX
8
2
10
-3.300000
20
3.200000
0
SEQEND
8
2
0
TEXT
8
0
10
-3.260000
20
2.910000
40
0.080000
41
1.000000
50
90.000000
1
VCC
0
TEXT
8
0
10
-3.310000
20
3.300000
40
0.080000
41
1.000000
50
90.000000
1
14
0
POLYLINE
8
2
66
1
40
0.016000
41
0.016000
0
VERTEX
8
2
10
-3.800000
20
2.300000
0
VERTEX
8
2
10
-3.600000
20
2.300000
0
SEQEND
8
2
0
TEXT
8
0
10
-3.550000
20
2.260000
40
0.080000
41
1.000000
1
TR
0
TEXT
8
0
10
-3.780000
20
2.310000
40
0.080000
41
1.000000
1
6
0
POLYLINE
8
2
66
1
40
0.016000
41
0.016000
0
VERTEX
8
2
10
-2.800000
20
2.300000
0
VERTEX
8
2
10
-3.000000
20
2.300000
0
SEQEND
8
2
0
TEXT
8
0
10
-3.210000
20
2.260000
40
0.080000
41
1.000000
1
TH
0
TEXT
8
0
10
-2.900000
20
2.310000
40
0.080000
41
1.000000
1
2
0
POLYLINE
8
2
66
1
40
0.016000
41
0.016000
0
VERTEX
8
2
10
-3.800000
20
2.700000
0
VERTEX
8
2
10
-3.600000
20
2.700000
0
SEQEND
8
2
0
TEXT
8
0
10
-3.550000
20
2.660000
40
0.080000
41
1.000000
1
CV
0
TEXT
8
0
10
-3.780000
20
2.710000
40
0.080000
41
1.000000
1
3
0
TEXT
8
0
10
-2.991996
20
3.323000
40
0.120000
41
0.666667
1
U5:A
0
TEXT
8
0
10
-3.391996
20
2.602000
40
0.080000
41
1.000000
1
NE556
0
POLYLINE
8
2
66
1
40
0.016000
41
0.016000
0
VERTEX
8
2
10
-1.800000
20
1.700000
0
VERTEX
8
2
10
-1.200000
20
1.700000
0
VERTEX
8
2
10
-1.200000
20
2.700000
0
VERTEX
8
2
10
-1.800000
20
2.700000
0
VERTEX
8
2
10
-1.800000
20
1.700000
0
SEQEND
8
2
0
CIRCLE
8
2
10
-1.830000
20
2.600000
40
0.030000
0
POLYLINE
8
2
66
1
40
0.016000
41
0.016000
0
VERTEX
8
2
10
-2.000000
20
2.600000
0
VERTEX
8
2
10
-1.860000
20
2.600000
0
SEQEND
8
2
0
TEXT
8
0
10
-1.750000
20
2.560000
40
0.080000
41
1.000000
1
R
0
TEXT
8
0
10
-2.060000
20
2.610000
40
0.080000
41
1.000000
1
10
0
POLYLINE
8
2
66
1
40
0.016000
41
0.016000
0
VERTEX
8
2
10
-1.000000
20
2.400000
0
VERTEX
8
2
10
-1.200000
20
2.400000
0
SEQEND
8
2
0
TEXT
8
0
10
-1.410000
20
2.360000
40
0.080000
41
1.000000
1
DC
0
TEXT
8
0
10
-1.100000
20
2.410000
40
0.080000
41
1.000000
1
13
0
POLYLINE
8
2
66
1
40
0.016000
41
0.016000
0
VERTEX
8
2
10
-1.000000
20
2.600000
0
VERTEX
8
2
10
-1.200000
20
2.600000
0
SEQEND
8
2
0
TEXT
8
0
10
-1.330000
20
2.560000
40
0.080000
41
1.000000
1
Q
0
TEXT
8
0
10
-1.100000
20
2.610000
40
0.080000
41
1.000000
1
9
0
POLYLINE
8
2
66
1
40
0.016000
41
0.016000
0
VERTEX
8
2
10
-1.500000
20
1.500000
0
VERTEX
8
2
10
-1.500000
20
1.700000
0
SEQEND
8
2
0
TEXT
8
0
10
-1.460000
20
1.750000
40
0.080000
41
1.000000
50
90.000000
1
GND
0
TEXT
8
0
10
-1.510000
20
1.520000
40
0.080000
41
1.000000
50
90.000000
1
7
0
POLYLINE
8
2
66
1
40
0.016000
41
0.016000
0
VERTEX
8
2
10
-1.500000
20
2.900000
0
VERTEX
8
2
10
-1.500000
20
2.700000
0
SEQEND
8
2
0
TEXT
8
0
10
-1.460000
20
2.410000
40
0.080000
41
1.000000
50
90.000000
1
VCC
0
TEXT
8
0
10
-1.510000
20
2.800000
40
0.080000
41
1.000000
50
90.000000
1
14
0
POLYLINE
8
2
66
1
40
0.016000
41
0.016000
0
VERTEX
8
2
10
-2.000000
20
1.800000
0
VERTEX
8
2
10
-1.800000
20
1.800000
0
SEQEND
8
2
0
TEXT
8
0
10
-1.750000
20
1.760000
40
0.080000
41
1.000000
1
TR
0
TEXT
8
0
10
-1.980000
20
1.810000
40
0.080000
41
1.000000
1
8
0
POLYLINE
8
2
66
1
40
0.016000
41
0.016000
0
VERTEX
8
2
10
-1.000000
20
1.800000
0
VERTEX
8
2
10
-1.200000
20
1.800000
0
SEQEND
8
2
0
TEXT
8
0
10
-1.410000
20
1.760000
40
0.080000
41
1.000000
1
TH
0
TEXT
8
0
10
-1.100000
20
1.810000
40
0.080000
41
1.000000
1
12
0
POLYLINE
8
2
66
1
40
0.016000
41
0.016000
0
VERTEX
8
2
10
-2.000000
20
2.200000
0
VERTEX
8
2
10
-1.800000
20
2.200000
0
SEQEND
8
2
0
TEXT
8
0
10
-1.750000
20
2.160000
40
0.080000
41
1.000000
1
CV
0
TEXT
8
0
10
-2.060000
20
2.210000
40
0.080000
41
1.000000
1
11
0
TEXT
8
0
10
-1.191996
20
2.823000
40
0.120000
41
0.666667
1
U5:B
0
TEXT
8
0
10
-1.191996
20
1.502000
40
0.080000
41
1.000000
1
NE556
0
CIRCLE
8
1
10
-2.800000
20
2.900000
40
0.020000
0
CIRCLE
8
1
10
-2.800000
20
3.100000
40
0.020000
0
CIRCLE
8
1
10
-3.300000
20
2.000000
40
0.020000
0
CIRCLE
8
1
10
-3.300000
20
3.400000
40
0.020000
0
CIRCLE
8
1
10
-3.800000
20
2.300000
40
0.020000
0
CIRCLE
8
1
10
-2.800000
20
2.300000
40
0.020000
0
CIRCLE
8
1
10
-3.800000
20
2.700000
40
0.020000
0
POLYLINE
8
2
66
1
40
0.016000
41
0.016000
0
VERTEX
8
2
10
-1.100000
20
1.330000
0
VERTEX
8
2
10
-0.900000
20
1.330000
0
VERTEX
8
2
10
-0.900000
20
1.380000
0
VERTEX
8
2
10
-1.100000
20
1.380000
0
VERTEX
8
2
10
-1.100000
20
1.330000
0
SEQEND
8
2
0
POLYLINE
8
2
66
1
40
0.016000
41
0.016000
0
VERTEX
8
2
10
-1.100000
20
1.220000
0
VERTEX
8
2
10
-0.900000
20
1.220000
0
VERTEX
8
2
10
-0.900000
20
1.270000
0
VERTEX
8
2
10
-1.100000
20
1.270000
0
VERTEX
8
2
10
-1.100000
20
1.220000
0
SEQEND
8
2
0
POLYLINE
8
2
66
1
40
0.016000
41
0.016000
0
VERTEX
8
2
10
-1.000000
20
1.220000
0
VERTEX
8
2
10
-1.000000
20
1.200000
0
SEQEND
8
2
0
POLYLINE
8
2
66
1
40
0.016000
41
0.016000
0
VERTEX
8
2
10
-1.000000
20
1.380000
0
VERTEX
8
2
10
-1.000000
20
1.400000
0
SEQEND
8
2
0
POLYLINE
8
2
66
1
40
0.016000
41
0.016000
0
VERTEX
8
2
10
-0.950000
20
1.270000
0
VERTEX
8
2
10
-0.900000
20
1.220000
0
SEQEND
8
2
0
POLYLINE
8
2
66
1
40
0.016000
41
0.016000
0
VERTEX
8
2
10
-1.000000
20
1.270000
0
VERTEX
8
2
10
-0.950000
20
1.220000
0
SEQEND
8
2
0
POLYLINE
8
2
66
1
40
0.016000
41
0.016000
0
VERTEX
8
2
10
-1.050000
20
1.270000
0
VERTEX
8
2
10
-1.000000
20
1.220000
0
SEQEND
8
2
0
POLYLINE
8
2
66
1
40
0.016000
41
0.016000
0
VERTEX
8
2
10
-1.100000
20
1.270000
0
VERTEX
8
2
10
-1.050000
20
1.220000
0
SEQEND
8
2
0
POLYLINE
8
2
66
1
40
0.016000
41
0.016000
0
VERTEX
8
2
10
-1.000000
20
1.500000
0
VERTEX
8
2
10
-1.000000
20
1.400000
0
SEQEND
8
2
0
POLYLINE
8
2
66
1
40
0.016000
41
0.016000
0
VERTEX
8
2
10
-1.000000
20
1.100000
0
VERTEX
8
2
10
-1.000000
20
1.200000
0
SEQEND
8
2
0
TEXT
8
0
10
-0.842000
20
1.273000
40
0.120000
41
0.666667
1
C3
0
TEXT
8
0
10
-0.842000
20
1.168000
40
0.080000
41
1.000000
1
10uF
0
CIRCLE
8
1
10
-1.000000
20
1.500000
40
0.020000
0
CIRCLE
8
1
10
-1.500000
20
1.100000
40
0.020000
0
POLYLINE
8
2
66
1
40
0.016000
41
0.016000
0
VERTEX
8
2
10
-1.400000
20
2.860000
0
VERTEX
8
2
10
-1.100000
20
2.860000
0
VERTEX
8
2
10
-1.100000
20
2.940000
0
VERTEX
8
2
10
-1.400000
20
2.940000
0
VERTEX
8
2
10
-1.400000
20
2.860000
0
SEQEND
8
2
0
POLYLINE
8
2
66
1
40
0.016000
41
0.016000
0
VERTEX
8
2
10
-1.500000
20
2.900000
0
VERTEX
8
2
10
-1.400000
20
2.900000
0
SEQEND
8
2
0
POLYLINE
8
2
66
1
40
0.016000
41
0.016000
0
VERTEX
8
2
10
-1.000000
20
2.900000
0
VERTEX
8
2
10
-1.100000
20
2.900000
0
SEQEND
8
2
0
TEXT
8
0
10
-1.408000
20
2.963000
40
0.120000
41
0.666667
1
R33
0
TEXT
8
0
10
-1.408000
20
2.762000
40
0.080000
41
1.000000
1
10k
0
POLYLINE
8
2
66
1
40
0.016000
41
0.016000
0
VERTEX
8
2
10
-0.840000
20
2.000000
0
VERTEX
8
2
10
-0.760000
20
2.000000
0
VERTEX
8
2
10
-0.760000
20
2.300000
0
VERTEX
8
2
10
-0.840000
20
2.300000
0
VERTEX
8
2
10
-0.840000
20
2.000000
0
SEQEND
8
2
0
POLYLINE
8
2
66
1
40
0.016000
41
0.016000
0
VERTEX
8
2
10
-0.800000
20
1.900000
0
VERTEX
8
2
10
-0.800000
20
2.000000
0
SEQEND
8
2
0
POLYLINE
8
2
66
1
40
0.016000
41
0.016000
0
VERTEX
8
2
10
-0.800000
20
2.400000
0
VERTEX
8
2
10
-0.800000
20
2.300000
0
SEQEND
8
2
0
TEXT
8
0
10
-0.702000
20
2.173000
40
0.120000
41
0.666667
1
R34
0
TEXT
8
0
10
-0.702000
20
2.068000
40
0.080000
41
1.000000
1
68k
0
CIRCLE
8
1
10
-0.800000
20
2.400000
40
0.020000
0
POLYLINE
8
2
66
1
40
0.016000
41
0.016000
0
VERTEX
8
2
10
-2.230000
20
2.100000
0
VERTEX
8
2
10
-2.230000
20
2.300000
0
SEQEND
8
2
0
POLYLINE
8
2
66
1
40
0.016000
41
0.016000
0
VERTEX
8
2
10
-2.170000
20
2.100000
0
VERTEX
8
2
10
-2.170000
20
2.300000
0
SEQEND
8
2
0
POLYLINE
8
2
66
1
40
0.016000
41
0.016000
0
VERTEX
8
2
10
-2.170000
20
2.200000
0
VERTEX
8
2
10
-2.100000
20
2.200000
0
SEQEND
8
2
0
POLYLINE
8
2
66
1
40
0.016000
41
0.016000
0
VERTEX
8
2
10
-2.230000
20
2.200000
0
VERTEX
8
2
10
-2.300000
20
2.200000
0
SEQEND
8
2
0
POLYLINE
8
2
66
1
40
0.016000
41
0.016000
0
VERTEX
8
2
10
-2.400000
20
2.200000
0
VERTEX
8
2
10
-2.300000
20
2.200000
0
SEQEND
8
2
0
POLYLINE
8
2
66
1
40
0.016000
41
0.016000
0
VERTEX
8
2
10
-2.000000
20
2.200000
0
VERTEX
8
2
10
-2.100000
20
2.200000
0
SEQEND
8
2
0
TEXT
8
0
10
-2.308000
20
2.323000
40
0.120000
41
0.666667
1
C4
0
TEXT
8
0
10
-2.308000
20
2.002000
40
0.080000
41
1.000000
1
10nF
0
POLYLINE
8
2
66
1
40
0.016000
41
0.016000
0
VERTEX
8
2
10
-2.400000
20
2.560000
0
VERTEX
8
2
10
-2.100000
20
2.560000
0
VERTEX
8
2
10
-2.100000
20
2.640000
0
VERTEX
8
2
10
-2.400000
20
2.640000
0
VERTEX
8
2
10
-2.400000
20
2.560000
0
SEQEND
8
2
0
POLYLINE
8
2
66
1
40
0.016000
41
0.016000
0
VERTEX
8
2
10
-2.000000
20
2.600000
0
VERTEX
8
2
10
-2.100000
20
2.600000
0
SEQEND
8
2
0
POLYLINE
8
2
66
1
40
0.016000
41
0.016000
0
VERTEX
8
2
10
-2.500000
20
2.600000
0
VERTEX
8
2
10
-2.400000
20
2.600000
0
SEQEND
8
2
0
TEXT
8
0
10
-2.408000
20
2.663000
40
0.120000
41
0.666667
1
R35
0
TEXT
8
0
10
-2.408000
20
2.462000
40
0.080000
41
1.000000
1
10k
0
CIRCLE
8
1
10
-2.500000
20
2.200000
40
0.020000
0
CIRCLE
8
1
10
-1.500000
20
3.300000
40
0.020000
0
CIRCLE
8
1
10
-1.000000
20
2.400000
40
0.020000
0
CIRCLE
8
1
10
-1.500000
20
1.500000
40
0.020000
0
CIRCLE
8
1
10
-1.500000
20
2.900000
40
0.020000
0
CIRCLE
8
1
10
-2.000000
20
1.800000
40
0.020000
0
CIRCLE
8
1
10
-1.000000
20
1.800000
40
0.020000
0
CIRCLE
8
1
10
-2.000000
20
2.200000
40
0.020000
0
CIRCLE
8
1
10
-1.500000
20
2.900000
40
0.020000
0
CIRCLE
8
1
10
-3.300000
20
1.000000
40
0.020000
0
CIRCLE
8
1
10
-2.000000
20
2.600000
40
0.020000
0
CIRCLE
8
2
10
0.920000
20
3.100000
40
0.030000
0
CIRCLE
8
2
10
0.680000
20
3.100000
40
0.030000
0
POLYLINE
8
2
66
1
40
0.016000
41
0.016000
0
VERTEX
8
2
10
0.660000
20
3.180000
0
VERTEX
8
2
10
0.940000
20
3.180000
0
SEQEND
8
2
0
POLYLINE
8
2
66
1
40
0.016000
41
0.016000
0
VERTEX
8
2
10
0.720000
20
3.180000
0
VERTEX
8
2
10
0.880000
20
3.180000
0
VERTEX
8
2
10
0.880000
20
3.230000
0
VERTEX
8
2
10
0.720000
20
3.230000
0
VERTEX
8
2
10
0.720000
20
3.180000
0
SEQEND
8
2
0
POLYLINE
8
2
66
1
40
0.016000
41
0.016000
0
VERTEX
8
2
10
0.550000
20
3.100000
0
VERTEX
8
2
10
0.650000
20
3.100000
0
SEQEND
8
2
0
POLYLINE
8
2
66
1
40
0.016000
41
0.016000
0
VERTEX
8
2
10
1.050000
20
3.100000
0
VERTEX
8
2
10
0.950000
20
3.100000
0
SEQEND
8
2
0
CIRCLE
8
4
10
1.000000
20
3.200000
40
0.040000
0
POLYLINE
8
4
66
1
40
0.008000
41
0.008000
0
VERTEX
8
4
10
1.000000
20
3.180000
0
VERTEX
8
4
10
1.000000
20
3.220000
0
SEQEND
8
4
0
POLYLINE
8
4
66
1
40
0.008000
41
0.008000
0
VERTEX
8
4
10
1.000000
20
3.180000
0
VERTEX
8
4
10
0.990000
20
3.190000
0
SEQEND
8
4
0
POLYLINE
8
4
66
1
40
0.008000
41
0.008000
0
VERTEX
8
4
10
1.000000
20
3.180000
0
VERTEX
8
4
10
1.010000
20
3.190000
0
SEQEND
8
4
0
POLYLINE
8
4
66
1
40
0.008000
41
0.008000
0
VERTEX
8
4
10
0.990000
20
3.210000
0
VERTEX
8
4
10
1.000000
20
3.220000
0
VERTEX
8
4
10
1.010000
20
3.210000
0
SEQEND
8
4
0
CIRCLE
8
1
10
-3.800000
20
3.100000
40
0.020000
0
CIRCLE
8
1
10
-3.800000
20
-2.600000
40
0.020000
0
CIRCLE
8
1
10
-3.800000
20
-4.300000
40
0.020000
0
CIRCLE
8
1
10
-1.100000
20
-2.600000
40
0.020000
0
CIRCLE
8
1
10
-1.100000
20
-4.300000
40
0.020000
0
CIRCLE
8
1
10
1.600000
20
-2.600000
40
0.020000
0
CIRCLE
8
1
10
1.600000
20
-4.300000
40
0.020000
0
CIRCLE
8
1
10
4.500000
20
-2.600000
40
0.020000
0
CIRCLE
8
1
10
4.500000
20
-4.300000
40
0.020000
0
CIRCLE
8
1
10
1.400000
20
-1.400000
40
0.020000
0
CIRCLE
8
1
10
-1.300000
20
-1.400000
40
0.020000
0
CIRCLE
8
1
10
-4.000000
20
-1.400000
40
0.020000
0
CIRCLE
8
1
10
-1.600000
20
-4.300000
40
0.020000
0
CIRCLE
8
1
10
1.100000
20
-4.300000
40
0.020000
0
CIRCLE
8
1
10
3.800000
20
-4.300000
40
0.020000
0
CIRCLE
8
2
10
0.320000
20
2.100000
40
0.030000
0
CIRCLE
8
2
10
0.080000
20
2.100000
40
0.030000
0
POLYLINE
8
2
66
1
40
0.016000
41
0.016000
0
VERTEX
8
2
10
0.060000
20
2.180000
0
VERTEX
8
2
10
0.340000
20
2.180000
0
SEQEND
8
2
0
POLYLINE
8
2
66
1
40
0.016000
41
0.016000
0
VERTEX
8
2
10
0.120000
20
2.180000
0
VERTEX
8
2
10
0.280000
20
2.180000
0
VERTEX
8
2
10
0.280000
20
2.230000
0
VERTEX
8
2
10
0.120000
20
2.230000
0
VERTEX
8
2
10
0.120000
20
2.180000
0
SEQEND
8
2
0
POLYLINE
8
2
66
1
40
0.016000
41
0.016000
0
VERTEX
8
2
10
-0.050000
20
2.100000
0
VERTEX
8
2
10
0.050000
20
2.100000
0
SEQEND
8
2
0
POLYLINE
8
2
66
1
40
0.016000
41
0.016000
0
VERTEX
8
2
10
0.450000
20
2.100000
0
VERTEX
8
2
10
0.350000
20
2.100000
0
SEQEND
8
2
0
CIRCLE
8
4
10
0.400000
20
2.200000
40
0.040000
0
POLYLINE
8
4
66
1
40
0.008000
41
0.008000
0
VERTEX
8
4
10
0.400000
20
2.180000
0
VERTEX
8
4
10
0.400000
20
2.220000
0
SEQEND
8
4
0
POLYLINE
8
4
66
1
40
0.008000
41
0.008000
0
VERTEX
8
4
10
0.400000
20
2.180000
0
VERTEX
8
4
10
0.390000
20
2.190000
0
SEQEND
8
4
0
POLYLINE
8
4
66
1
40
0.008000
41
0.008000
0
VERTEX
8
4
10
0.400000
20
2.180000
0
VERTEX
8
4
10
0.410000
20
2.190000
0
SEQEND
8
4
0
POLYLINE
8
4
66
1
40
0.008000
41
0.008000
0
VERTEX
8
4
10
0.390000
20
2.210000
0
VERTEX
8
4
10
0.400000
20
2.220000
0
VERTEX
8
4
10
0.410000
20
2.210000
0
SEQEND
8
4
0
CIRCLE
8
1
10
-4.700000
20
-4.300000
40
0.020000
0
POLYLINE
8
2
66
1
40
0.016000
41
0.016000
0
VERTEX
8
2
10
0.360000
20
3.400000
0
VERTEX
8
2
10
0.440000
20
3.400000
0
VERTEX
8
2
10
0.440000
20
3.700000
0
VERTEX
8
2
10
0.360000
20
3.700000
0
VERTEX
8
2
10
0.360000
20
3.400000
0
SEQEND
8
2
0
POLYLINE
8
2
66
1
40
0.016000
41
0.016000
0
VERTEX
8
2
10
0.400000
20
3.300000
0
VERTEX
8
2
10
0.400000
20
3.400000
0
SEQEND
8
2
0
POLYLINE
8
2
66
1
40
0.016000
41
0.016000
0
VERTEX
8
2
10
0.400000
20
3.800000
0
VERTEX
8
2
10
0.400000
20
3.700000
0
SEQEND
8
2
0
TEXT
8
0
10
0.498000
20
3.573000
40
0.120000
41
0.666667
1
R36
0
TEXT
8
0
10
0.498000
20
3.468000
40
0.080000
41
1.000000
1
10k
0
CIRCLE
8
1
10
-1.500000
20
3.800000
40
0.020000
0
CIRCLE
8
1
10
0.450000
20
2.100000
40
0.020000
0
CIRCLE
8
1
10
0.400000
20
3.800000
40
0.020000
0
CIRCLE
8
1
10
3.000000
20
-1.400000
40
0.020000
0
CIRCLE
8
2
10
3.000000
20
1.720000
40
0.030000
0
CIRCLE
8
2
10
3.000000
20
1.480000
40
0.030000
0
POLYLINE
8
2
66
1
40
0.016000
41
0.016000
0
VERTEX
8
2
10
2.920000
20
1.460000
0
VERTEX
8
2
10
2.920000
20
1.740000
0
SEQEND
8
2
0
POLYLINE
8
2
66
1
40
0.016000
41
0.016000
0
VERTEX
8
2
10
2.870000
20
1.520000
0
VERTEX
8
2
10
2.920000
20
1.520000
0
VERTEX
8
2
10
2.920000
20
1.680000
0
VERTEX
8
2
10
2.870000
20
1.680000
0
VERTEX
8
2
10
2.870000
20
1.520000
0
SEQEND
8
2
0
POLYLINE
8
2
66
1
40
0.016000
41
0.016000
0
VERTEX
8
2
10
3.000000
20
1.350000
0
VERTEX
8
2
10
3.000000
20
1.450000
0
SEQEND
8
2
0
POLYLINE
8
2
66
1
40
0.016000
41
0.016000
0
VERTEX
8
2
10
3.000000
20
1.850000
0
VERTEX
8
2
10
3.000000
20
1.750000
0
SEQEND
8
2
0
CIRCLE
8
4
10
2.900000
20
1.800000
40
0.040000
0
POLYLINE
8
4
66
1
40
0.008000
41
0.008000
0
VERTEX
8
4
10
2.920000
20
1.800000
0
VERTEX
8
4
10
2.880000
20
1.800000
0
SEQEND
8
4
0
POLYLINE
8
4
66
1
40
0.008000
41
0.008000
0
VERTEX
8
4
10
2.920000
20
1.800000
0
VERTEX
8
4
10
2.910000
20
1.790000
0
SEQEND
8
4
0
POLYLINE
8
4
66
1
40
0.008000
41
0.008000
0
VERTEX
8
4
10
2.920000
20
1.800000
0
VERTEX
8
4
10
2.910000
20
1.810000
0
SEQEND
8
4
0
POLYLINE
8
4
66
1
40
0.008000
41
0.008000
0
VERTEX
8
4
10
2.890000
20
1.790000
0
VERTEX
8
4
10
2.880000
20
1.800000
0
VERTEX
8
4
10
2.890000
20
1.810000
0
SEQEND
8
4
0
POLYLINE
8
2
66
1
40
0.016000
41
0.016000
0
VERTEX
8
2
10
1.300000
20
2.000000
0
VERTEX
8
2
10
1.298963
20
2.020374
0
VERTEX
8
2
10
1.295918
20
2.040176
0
VERTEX
8
2
10
1.290969
20
2.059304
0
VERTEX
8
2
10
1.284219
20
2.077656
0
VERTEX
8
2
10
1.275769
20
2.095129
0
VERTEX
8
2
10
1.265723
20
2.111621
0
VERTEX
8
2
10
1.254182
20
2.127029
0
VERTEX
8
2
10
1.241250
20
2.141250
0
VERTEX
8
2
10
1.227029
20
2.154182
0
VERTEX
8
2
10
1.211621
20
2.165723
0
VERTEX
8
2
10
1.195130
20
2.175769
0
VERTEX
8
2
10
1.177656
20
2.184219
0
VERTEX
8
2
10
1.159304
20
2.190969
0
VERTEX
8
2
10
1.140176
20
2.195918
0
VERTEX
8
2
10
1.120374
20
2.198963
0
VERTEX
8
2
10
1.100000
20
2.200000
0
VERTEX
8
2
10
0.700000
20
2.200000
0
VERTEX
8
2
10
0.700000
20
1.800000
0
VERTEX
8
2
10
1.100000
20
1.800000
0
VERTEX
8
2
10
1.120374
20
1.801037
0
VERTEX
8
2
10
1.140176
20
1.804082
0
VERTEX
8
2
10
1.159304
20
1.809031
0
VERTEX
8
2
10
1.177656
20
1.815781
0
VERTEX
8
2
10
1.195130
20
1.824231
0
VERTEX
8
2
10
1.211621
20
1.834277
0
VERTEX
8
2
10
1.227029
20
1.845818
0
VERTEX
8
2
10
1.241250
20
1.858750
0
VERTEX
8
2
10
1.254182
20
1.872971
0
VERTEX
8
2
10
1.265723
20
1.888379
0
VERTEX
8
2
10
1.275769
20
1.904871
0
VERTEX
8
2
10
1.284219
20
1.922344
0
VERTEX
8
2
10
1.290969
20
1.940696
0
VERTEX
8
2
10
1.295918
20
1.959824
0
VERTEX
8
2
10
1.298963
20
1.979626
0
VERTEX
8
2
10
1.300000
20
2.000000
0
SEQEND
8
2
0
POLYLINE
8
2
66
1
40
0.016000
41
0.016000
0
VERTEX
8
2
10
0.500000
20
2.100000
0
VERTEX
8
2
10
0.700000
20
2.100000
0
SEQEND
8
2
0
TEXT
8
0
10
0.520000
20
2.110000
40
0.080000
41
1.000000
1
1
0
POLYLINE
8
2
66
1
40
0.016000
41
0.016000
0
VERTEX
8
2
10
0.500000
20
1.900000
0
VERTEX
8
2
10
0.700000
20
1.900000
0
SEQEND
8
2
0
TEXT
8
0
10
0.520000
20
1.910000
40
0.080000
41
1.000000
1
2
0
CIRCLE
8
2
10
1.330000
20
2.000000
40
0.030000
0
POLYLINE
8
2
66
1
40
0.016000
41
0.016000
0
VERTEX
8
2
10
1.500000
20
2.000000
0
VERTEX
8
2
10
1.360000
20
2.000000
0
SEQEND
8
2
0
TEXT
8
0
10
1.400000
20
2.010000
40
0.080000
41
1.000000
1
3
0
TEXT
8
0
10
0.692000
20
2.223000
40
0.120000
41
0.666667
1
U7:A
0
TEXT
8
0
10
0.692000
20
1.702000
40
0.080000
41
1.000000
1
4011
0
POLYLINE
8
2
66
1
40
0.016000
41
0.016000
0
VERTEX
8
2
10
1.300000
20
1.300000
0
VERTEX
8
2
10
1.298963
20
1.320374
0
VERTEX
8
2
10
1.295918
20
1.340176
0
VERTEX
8
2
10
1.290969
20
1.359304
0
VERTEX
8
2
10
1.284219
20
1.377656
0
VERTEX
8
2
10
1.275769
20
1.395130
0
VERTEX
8
2
10
1.265723
20
1.411621
0
VERTEX
8
2
10
1.254182
20
1.427029
0
VERTEX
8
2
10
1.241250
20
1.441250
0
VERTEX
8
2
10
1.227029
20
1.454182
0
VERTEX
8
2
10
1.211621
20
1.465723
0
VERTEX
8
2
10
1.195130
20
1.475769
0
VERTEX
8
2
10
1.177656
20
1.484219
0
VERTEX
8
2
10
1.159304
20
1.490969
0
VERTEX
8
2
10
1.140176
20
1.495918
0
VERTEX
8
2
10
1.120374
20
1.498963
0
VERTEX
8
2
10
1.100000
20
1.500000
0
VERTEX
8
2
10
0.700000
20
1.500000
0
VERTEX
8
2
10
0.700000
20
1.100000
0
VERTEX
8
2
10
1.100000
20
1.100000
0
VERTEX
8
2
10
1.120374
20
1.101037
0
VERTEX
8
2
10
1.140176
20
1.104082
0
VERTEX
8
2
10
1.159304
20
1.109031
0
VERTEX
8
2
10
1.177656
20
1.115781
0
VERTEX
8
2
10
1.195130
20
1.124231
0
VERTEX
8
2
10
1.211621
20
1.134277
0
VERTEX
8
2
10
1.227029
20
1.145818
0
VERTEX
8
2
10
1.241250
20
1.158750
0
VERTEX
8
2
10
1.254182
20
1.172971
0
VERTEX
8
2
10
1.265723
20
1.188379
0
VERTEX
8
2
10
1.275769
20
1.204870
0
VERTEX
8
2
10
1.284219
20
1.222344
0
VERTEX
8
2
10
1.290969
20
1.240696
0
VERTEX
8
2
10
1.295918
20
1.259824
0
VERTEX
8
2
10
1.298963
20
1.279626
0
VERTEX
8
2
10
1.300000
20
1.300000
0
SEQEND
8
2
0
POLYLINE
8
2
66
1
40
0.016000
41
0.016000
0
VERTEX
8
2
10
0.500000
20
1.400000
0
VERTEX
8
2
10
0.700000
20
1.400000
0
SEQEND
8
2
0
TEXT
8
0
10
0.520000
20
1.410000
40
0.080000
41
1.000000
1
5
0
POLYLINE
8
2
66
1
40
0.016000
41
0.016000
0
VERTEX
8
2
10
0.500000
20
1.200000
0
VERTEX
8
2
10
0.700000
20
1.200000
0
SEQEND
8
2
0
TEXT
8
0
10
0.520000
20
1.210000
40
0.080000
41
1.000000
1
6
0
CIRCLE
8
2
10
1.330000
20
1.300000
40
0.030000
0
POLYLINE
8
2
66
1
40
0.016000
41
0.016000
0
VERTEX
8
2
10
1.500000
20
1.300000
0
VERTEX
8
2
10
1.360000
20
1.300000
0
SEQEND
8
2
0
TEXT
8
0
10
1.400000
20
1.310000
40
0.080000
41
1.000000
1
4
0
TEXT
8
0
10
0.692000
20
1.523000
40
0.120000
41
0.666667
1
U7:B
0
TEXT
8
0
10
0.692000
20
1.002000
40
0.080000
41
1.000000
1
4011
0
POLYLINE
8
2
66
1
40
0.016000
41
0.016000
0
VERTEX
8
2
10
1.300000
20
0.600000
0
VERTEX
8
2
10
1.298963
20
0.620374
0
VERTEX
8
2
10
1.295918
20
0.640176
0
VERTEX
8
2
10
1.290969
20
0.659304
0
VERTEX
8
2
10
1.284219
20
0.677656
0
VERTEX
8
2
10
1.275769
20
0.695130
0
VERTEX
8
2
10
1.265723
20
0.711621
0
VERTEX
8
2
10
1.254182
20
0.727029
0
VERTEX
8
2
10
1.241250
20
0.741250
0
VERTEX
8
2
10
1.227029
20
0.754182
0
VERTEX
8
2
10
1.211621
20
0.765723
0
VERTEX
8
2
10
1.195130
20
0.775769
0
VERTEX
8
2
10
1.177656
20
0.784219
0
VERTEX
8
2
10
1.159304
20
0.790969
0
VERTEX
8
2
10
1.140176
20
0.795918
0
VERTEX
8
2
10
1.120374
20
0.798963
0
VERTEX
8
2
10
1.100000
20
0.800000
0
VERTEX
8
2
10
0.700000
20
0.800000
0
VERTEX
8
2
10
0.700000
20
0.400000
0
VERTEX
8
2
10
1.100000
20
0.400000
0
VERTEX
8
2
10
1.120374
20
0.401037
0
VERTEX
8
2
10
1.140176
20
0.404082
0
VERTEX
8
2
10
1.159304
20
0.409031
0
VERTEX
8
2
10
1.177656
20
0.415781
0
VERTEX
8
2
10
1.195130
20
0.424231
0
VERTEX
8
2
10
1.211621
20
0.434277
0
VERTEX
8
2
10
1.227029
20
0.445818
0
VERTEX
8
2
10
1.241250
20
0.458750
0
VERTEX
8
2
10
1.254182
20
0.472971
0
VERTEX
8
2
10
1.265723
20
0.488379
0
VERTEX
8
2
10
1.275769
20
0.504870
0
VERTEX
8
2
10
1.284219
20
0.522344
0
VERTEX
8
2
10
1.290969
20
0.540696
0
VERTEX
8
2
10
1.295918
20
0.559824
0
VERTEX
8
2
10
1.298963
20
0.579626
0
VERTEX
8
2
10
1.300000
20
0.600000
0
SEQEND
8
2
0
POLYLINE
8
2
66
1
40
0.016000
41
0.016000
0
VERTEX
8
2
10
0.500000
20
0.700000
0
VERTEX
8
2
10
0.700000
20
0.700000
0
SEQEND
8
2
0
TEXT
8
0
10
0.520000
20
0.710000
40
0.080000
41
1.000000
1
8
0
POLYLINE
8
2
66
1
40
0.016000
41
0.016000
0
VERTEX
8
2
10
0.500000
20
0.500000
0
VERTEX
8
2
10
0.700000
20
0.500000
0
SEQEND
8
2
0
TEXT
8
0
10
0.520000
20
0.510000
40
0.080000
41
1.000000
1
9
0
CIRCLE
8
2
10
1.330000
20
0.600000
40
0.030000
0
POLYLINE
8
2
66
1
40
0.016000
41
0.016000
0
VERTEX
8
2
10
1.500000
20
0.600000
0
VERTEX
8
2
10
1.360000
20
0.600000
0
SEQEND
8
2
0
TEXT
8
0
10
1.400000
20
0.610000
40
0.080000
41
1.000000
1
10
0
TEXT
8
0
10
0.692000
20
0.823000
40
0.120000
41
0.666667
1
U7:C
0
TEXT
8
0
10
0.692000
20
0.302000
40
0.080000
41
1.000000
1
4011
0
POLYLINE
8
2
66
1
40
0.016000
41
0.016000
0
VERTEX
8
2
10
1.300000
20
-0.100000
0
VERTEX
8
2
10
1.298963
20
-0.079626
0
VERTEX
8
2
10
1.295918
20
-0.059824
0
VERTEX
8
2
10
1.290969
20
-0.040696
0
VERTEX
8
2
10
1.284219
20
-0.022344
0
VERTEX
8
2
10
1.275769
20
-0.004870
0
VERTEX
8
2
10
1.265723
20
0.011621
0
VERTEX
8
2
10
1.254182
20
0.027029
0
VERTEX
8
2
10
1.241250
20
0.041250
0
VERTEX
8
2
10
1.227029
20
0.054182
0
VERTEX
8
2
10
1.211621
20
0.065723
0
VERTEX
8
2
10
1.195130
20
0.075769
0
VERTEX
8
2
10
1.177656
20
0.084219
0
VERTEX
8
2
10
1.159304
20
0.090969
0
VERTEX
8
2
10
1.140176
20
0.095918
0
VERTEX
8
2
10
1.120374
20
0.098963
0
VERTEX
8
2
10
1.100000
20
0.100000
0
VERTEX
8
2
10
0.700000
20
0.100000
0
VERTEX
8
2
10
0.700000
20
-0.300000
0
VERTEX
8
2
10
1.100000
20
-0.300000
0
VERTEX
8
2
10
1.120374
20
-0.298963
0
VERTEX
8
2
10
1.140176
20
-0.295918
0
VERTEX
8
2
10
1.159304
20
-0.290969
0
VERTEX
8
2
10
1.177656
20
-0.284219
0
VERTEX
8
2
10
1.195130
20
-0.275769
0
VERTEX
8
2
10
1.211621
20
-0.265723
0
VERTEX
8
2
10
1.227029
20
-0.254182
0
VERTEX
8
2
10
1.241250
20
-0.241250
0
VERTEX
8
2
10
1.254182
20
-0.227029
0
VERTEX
8
2
10
1.265723
20
-0.211621
0
VERTEX
8
2
10
1.275769
20
-0.195130
0
VERTEX
8
2
10
1.284219
20
-0.177656
0
VERTEX
8
2
10
1.290969
20
-0.159304
0
VERTEX
8
2
10
1.295918
20
-0.140176
0
VERTEX
8
2
10
1.298963
20
-0.120374
0
VERTEX
8
2
10
1.300000
20
-0.100000
0
SEQEND
8
2
0
POLYLINE
8
2
66
1
40
0.016000
41
0.016000
0
VERTEX
8
2
10
0.500000
20
0.000000
0
VERTEX
8
2
10
0.700000
20
0.000000
0
SEQEND
8
2
0
TEXT
8
0
10
0.440000
20
0.010000
40
0.080000
41
1.000000
1
12
0
POLYLINE
8
2
66
1
40
0.016000
41
0.016000
0
VERTEX
8
2
10
0.500000
20
-0.200000
0
VERTEX
8
2
10
0.700000
20
-0.200000
0
SEQEND
8
2
0
TEXT
8
0
10
0.440000
20
-0.190000
40
0.080000
41
1.000000
1
13
0
CIRCLE
8
2
10
1.330000
20
-0.100000
40
0.030000
0
POLYLINE
8
2
66
1
40
0.016000
41
0.016000
0
VERTEX
8
2
10
1.500000
20
-0.100000
0
VERTEX
8
2
10
1.360000
20
-0.100000
0
SEQEND
8
2
0
TEXT
8
0
10
1.400000
20
-0.090000
40
0.080000
41
1.000000
1
11
0
TEXT
8
0
10
0.692000
20
0.123000
40
0.120000
41
0.666667
1
U7:D
0
TEXT
8
0
10
0.692000
20
-0.398000
40
0.080000
41
1.000000
1
4011
0
CIRCLE
8
1
10
0.500000
20
2.100000
40
0.020000
0
CIRCLE
8
1
10
0.500000
20
1.900000
40
0.020000
0
CIRCLE
8
1
10
1.500000
20
2.000000
40
0.020000
0
CIRCLE
8
1
10
0.500000
20
1.400000
40
0.020000
0
CIRCLE
8
1
10
0.500000
20
0.700000
40
0.020000
0
CIRCLE
8
1
10
0.500000
20
0.500000
40
0.020000
0
CIRCLE
8
1
10
-0.200000
20
3.800000
40
0.020000
0
POLYLINE
8
2
66
1
40
0.016000
41
0.016000
0
VERTEX
8
2
10
-0.240000
20
1.400000
0
VERTEX
8
2
10
-0.160000
20
1.400000
0
VERTEX
8
2
10
-0.160000
20
1.700000
0
VERTEX
8
2
10
-0.240000
20
1.700000
0
VERTEX
8
2
10
-0.240000
20
1.400000
0
SEQEND
8
2
0
POLYLINE
8
2
66
1
40
0.016000
41
0.016000
0
VERTEX
8
2
10
-0.200000
20
1.300000
0
VERTEX
8
2
10
-0.200000
20
1.400000
0
SEQEND
8
2
0
POLYLINE
8
2
66
1
40
0.016000
41
0.016000
0
VERTEX
8
2
10
-0.200000
20
1.800000
0
VERTEX
8
2
10
-0.200000
20
1.700000
0
SEQEND
8
2
0
TEXT
8
0
10
-0.102000
20
1.573000
40
0.120000
41
0.666667
1
R37
0
TEXT
8
0
10
-0.102000
20
1.468000
40
0.080000
41
1.000000
1
10k
0
CIRCLE
8
1
10
-0.500000
20
-0.800000
40
0.020000
0
CIRCLE
8
1
10
-0.200000
20
1.200000
40
0.020000
0
POLYLINE
8
2
66
1
40
0.016000
41
0.016000
0
VERTEX
8
2
10
7.060000
20
-2.500000
0
VERTEX
8
2
10
7.140000
20
-2.500000
0
VERTEX
8
2
10
7.140000
20
-2.200000
0
VERTEX
8
2
10
7.060000
20
-2.200000
0
VERTEX
8
2
10
7.060000
20
-2.500000
0
SEQEND
8
2
0
POLYLINE
8
2
66
1
40
0.016000
41
0.016000
0
VERTEX
8
2
10
7.100000
20
-2.600000
0
VERTEX
8
2
10
7.100000
20
-2.500000
0
SEQEND
8
2
0
POLYLINE
8
2
66
1
40
0.016000
41
0.016000
0
VERTEX
8
2
10
7.100000
20
-2.100000
0
VERTEX
8
2
10
7.100000
20
-2.200000
0
SEQEND
8
2
0
TEXT
8
0
10
7.198000
20
-2.327000
40
0.120000
41
0.666667
1
R38
0
TEXT
8
0
10
7.198000
20
-2.432000
40
0.080000
41
1.000000
1
10k
0
CIRCLE
8
1
10
6.700000
20
-4.300000
40
0.020000
0
CIRCLE
8
1
10
4.500000
20
3.100000
40
0.020000
0
ENDSEC
0
EOF

